<?xml version="1.0" standalone="no"?>
<!DOCTYPE svg PUBLIC "-//W3C//DTD SVG 20010904//EN"
 "http://www.w3.org/TR/2001/REC-SVG-20010904/DTD/svg10.dtd">
<svg version="1.0" xmlns="http://www.w3.org/2000/svg"
 width="750.000000pt" height="750.000000pt" viewBox="0 0 750.000000 750.000000"
 preserveAspectRatio="xMidYMid meet">
<metadata>
Created by potrace 1.11, written by Peter Selinger 2001-2013
</metadata>
<g transform="translate(0.000000,750.000000) scale(0.100000,-0.100000)"
fill="#000000" stroke="none">
<path d="M133 7493 c124 -3 138 -5 149 -23 9 -15 24 -20 53 -20 49 0 146 -45
153 -72 5 -19 22 -25 22 -8 0 13 37 13 44 1 7 -11 74 5 96 23 34 29 95 43 169
39 98 -5 125 -20 144 -80 29 -90 31 -129 8 -162 -18 -24 -19 -30 -6 -35 8 -3
15 -18 15 -33 0 -14 9 -37 21 -49 11 -12 21 -28 22 -36 2 -7 13 -28 25 -45 12
-17 22 -35 22 -40 0 -7 28 -12 105 -16 35 -2 59 -22 51 -42 -3 -8 8 -25 27
-40 18 -14 38 -31 46 -38 8 -6 22 -15 30 -19 14 -6 14 -7 1 -7 -8 -1 -35 10
-60 23 -25 13 -60 27 -78 31 -18 4 -48 22 -66 41 -39 40 -62 43 -70 9 -4 -14
-24 -53 -46 -86 -22 -34 -41 -73 -42 -86 -1 -12 -2 -36 -3 -52 -2 -33 -12 -51
-27 -51 -6 0 -19 -7 -28 -15 -15 -13 -27 -13 -111 6 -52 12 -110 25 -131 29
-20 4 -47 19 -61 34 -22 23 -26 39 -32 129 -7 100 -26 215 -40 236 -15 25 -65
41 -105 35 -22 -4 -40 -10 -40 -14 0 -10 -66 -37 -122 -51 -27 -6 -48 -14 -48
-17 0 -3 14 -17 32 -32 43 -36 51 -116 18 -191 -12 -30 -19 -61 -16 -74 4 -17
-1 -27 -19 -39 -32 -21 -64 -20 -100 4 -16 11 -38 17 -47 14 -10 -3 -33 -1
-53 5 l-35 9 0 -923 0 -924 228 -5 c125 -3 240 -6 256 -7 22 -1 37 7 58 30 15
17 28 28 28 23 0 -4 -5 -13 -12 -20 -21 -21 10 -42 65 -42 28 0 48 3 44 6 -8
9 48 90 68 97 18 8 20 38 3 55 -23 23 -61 13 -100 -25 -21 -20 -40 -34 -44
-31 -3 4 1 31 10 61 9 30 16 58 16 61 0 12 -26 5 -72 -18 -51 -26 -52 -25 -61
15 -7 26 5 44 48 74 33 22 7 31 -41 13 -49 -17 -70 -6 -35 18 16 12 21 26 21
60 0 24 3 44 8 44 4 0 15 12 25 26 18 24 18 26 2 44 -16 18 -16 22 -2 43 14
21 13 24 -13 50 -18 18 -37 27 -59 27 -32 0 -32 1 -26 33 4 17 15 40 24 51 15
17 15 19 -6 33 -19 13 -21 21 -17 57 4 23 1 59 -5 81 -9 34 -8 41 9 57 24 22
26 44 5 52 -8 3 -15 14 -15 25 0 13 -9 21 -29 26 -26 6 -29 11 -36 61 -5 44
-3 59 9 73 19 20 9 33 -32 46 -19 5 -22 12 -17 28 4 12 10 40 14 62 4 23 11
46 15 53 4 7 7 50 6 95 -3 118 -3 117 -21 117 -9 0 -20 10 -23 23 -26 88 -36
133 -32 144 3 7 -3 19 -14 25 -28 18 -25 31 11 47 28 12 102 11 116 -2 2 -3
-1 -15 -7 -27 -8 -16 -9 -29 -1 -48 5 -15 8 -44 6 -66 -4 -43 -6 -42 95 -16
56 15 164 14 210 -3 38 -13 64 -29 152 -88 31 -22 60 -39 63 -39 3 0 27 -16
52 -35 25 -19 50 -35 55 -35 5 0 24 -11 41 -24 18 -13 62 -38 99 -55 59 -28
106 -61 181 -126 9 -8 20 -15 23 -15 11 0 134 -84 134 -92 0 -4 6 -8 13 -8 11
0 101 -71 157 -124 42 -39 70 -83 65 -99 -8 -19 22 -42 56 -42 20 0 32 8 44
27 14 24 18 26 36 15 10 -6 17 -17 15 -24 -7 -17 17 -63 32 -63 6 0 12 11 12
24 0 14 6 31 13 38 7 7 16 21 20 31 10 28 44 21 50 -10 3 -16 13 -37 21 -48
15 -20 16 -20 38 8 22 26 24 27 52 12 35 -19 36 -19 36 3 1 14 3 14 20 -6 10
-12 21 -18 25 -13 8 13 -5 61 -16 61 -5 0 -9 7 -9 15 0 8 5 15 10 15 6 0 10 9
10 20 0 11 -4 20 -10 20 -5 0 -10 -7 -10 -15 0 -29 -15 -14 -39 37 -14 28 -47
73 -73 98 -49 47 -60 70 -33 70 8 0 15 -3 15 -7 0 -7 22 -33 104 -121 26 -28
28 -34 16 -43 -12 -9 -12 -10 3 -5 10 3 28 1 39 -5 28 -15 29 -9 12 40 -18 53
-12 65 11 19 34 -66 65 -87 65 -44 0 38 10 56 32 56 18 0 20 -5 15 -36 -3 -20
-13 -44 -22 -54 -17 -19 -20 -50 -5 -50 6 0 10 5 10 10 0 16 18 12 40 -10 26
-26 31 -25 55 10 17 26 21 27 36 15 22 -21 25 -19 39 16 l13 31 11 -33 c6 -18
17 -34 24 -37 10 -3 12 13 8 74 -4 63 -3 69 3 33 11 -58 30 -96 40 -80 4 6 15
9 24 5 13 -5 21 3 32 30 12 29 21 36 44 36 15 0 35 8 44 18 13 14 31 18 81 17
47 0 67 4 71 14 4 11 8 11 20 1 11 -9 18 -10 29 -1 10 9 16 8 26 -4 16 -19 30
-19 30 -1 0 8 15 23 33 33 29 18 35 18 55 5 12 -8 22 -20 22 -26 0 -6 9 -17
20 -24 29 -18 37 8 16 53 -18 38 -14 58 9 49 9 -4 17 -27 21 -56 l7 -50 21 27
21 27 28 -26 c16 -14 30 -26 33 -26 3 0 5 17 4 38 -3 57 -1 62 19 62 10 0 21
7 25 15 7 20 25 19 47 -1 17 -15 19 -15 31 12 l13 28 5 -39 c5 -38 6 -39 48
-40 32 -1 46 4 53 17 10 19 49 25 49 7 0 -6 6 -9 13 -6 6 2 19 -2 29 -10 13
-12 20 -12 37 -1 12 7 21 16 21 20 0 4 6 5 13 2 8 -3 19 2 26 10 7 8 18 13 24
10 7 -2 18 9 24 26 12 31 33 41 33 15 0 -9 7 -18 15 -21 8 -4 15 -11 15 -18 0
-21 40 -47 62 -40 18 5 19 3 13 -26 -6 -27 -4 -32 14 -37 17 -4 21 -13 21 -49
0 -40 6 -49 28 -41 4 1 7 38 7 81 0 54 4 80 13 83 6 3 12 -3 12 -12 0 -28 38
16 42 49 1 16 9 31 17 34 10 3 12 -5 9 -37 l-4 -42 31 7 c16 4 33 11 37 17 4
8 9 6 13 -5 5 -13 14 -16 36 -11 21 4 30 1 35 -11 5 -13 14 -15 34 -11 16 4
31 1 35 -5 5 -8 10 -8 20 0 11 9 21 6 44 -11 23 -17 34 -20 42 -12 13 13 50
-4 80 -36 16 -17 19 -30 14 -64 -8 -63 -13 -307 -5 -267 7 32 7 33 9 7 1 -18
5 -26 12 -21 7 4 9 22 6 45 -4 34 -1 44 24 68 l29 29 0 -31 c1 -66 52 -91 69
-34 7 25 9 27 10 10 1 -13 5 -23 10 -23 4 0 11 -21 14 -46 6 -58 23 -78 33
-38 4 16 12 35 18 43 6 8 11 30 11 50 0 25 6 38 20 46 11 5 22 19 23 30 2 11
10 23 17 27 7 5 11 17 8 28 -3 12 1 22 10 26 9 3 19 20 23 37 3 17 15 45 25
63 10 18 19 50 22 71 3 29 4 25 5 -19 2 -67 15 -81 32 -35 6 17 18 46 25 62
l14 30 0 -33 c1 -19 -6 -61 -15 -95 -13 -48 -14 -68 -5 -90 12 -30 31 -28 31
4 0 10 5 19 10 19 6 0 10 -7 10 -15 0 -18 14 -20 28 -2 12 16 21 77 10 77 -4
0 -8 5 -8 11 0 6 6 9 14 6 18 -7 32 9 41 46 4 15 12 27 19 27 7 0 29 30 51 68
72 125 196 322 218 347 12 14 37 45 56 70 19 25 36 44 38 41 3 -2 -20 -37 -49
-78 -127 -173 -272 -425 -283 -489 -4 -22 -11 -37 -15 -34 -12 8 -23 -58 -15
-86 l7 -22 14 24 c7 13 13 32 14 42 0 10 10 28 23 40 12 12 47 58 77 102 29
44 62 91 72 105 10 14 48 66 85 115 73 100 138 180 195 239 21 22 38 43 38 49
0 5 7 6 16 3 9 -3 12 -2 8 5 -3 6 38 57 92 113 123 126 219 240 219 258 0 7
28 31 62 53 69 44 74 54 78 141 l2 60 -31 0 c-25 -1 -31 -5 -33 -24 0 -13 -15
-38 -32 -56 -30 -31 -42 -54 -21 -41 6 3 10 0 10 -8 0 -10 -7 -13 -18 -10 -23
6 -91 -29 -122 -62 -13 -14 -28 -25 -33 -25 -6 0 -1 10 11 23 11 12 30 42 41
67 18 41 19 46 4 62 -14 16 -15 25 -5 69 7 28 12 106 12 173 0 68 3 144 6 170
l7 46 81 0 82 0 -1 -52 c-1 -29 -4 -60 -8 -68 -5 -14 -37 -165 -42 -200 -1 -8
-5 -23 -10 -33 -14 -32 9 -40 47 -17 42 24 57 55 62 130 7 81 18 142 30 165 6
11 11 31 11 45 l0 25 695 5 c382 3 -995 5 -3060 5 -2065 1 -3693 -1 -3617 -2z
m1167 -32 c18 -44 16 -133 -5 -164 -21 -33 -40 -33 -117 -5 -79 28 -102 58
-94 121 11 79 8 77 111 77 l93 0 12 -29z m2730 21 c0 -11 -77 -129 -90 -137
-5 -3 -10 -25 -10 -49 0 -35 -6 -48 -34 -75 l-35 -34 6 -116 c4 -93 1 -139
-16 -230 -11 -62 -27 -127 -36 -144 -8 -16 -15 -34 -15 -39 0 -5 -7 -20 -16
-33 -15 -23 -16 -23 -45 -6 -33 20 -70 71 -88 121 -7 19 -16 106 -22 193 -5
87 -11 163 -14 168 -4 5 -17 9 -31 9 -44 0 -71 20 -133 98 -27 35 -32 48 -27
75 4 22 1 40 -10 56 -9 12 -18 46 -20 74 -3 28 -9 56 -15 64 -10 11 45 13 320
13 182 0 331 -4 331 -8z m160 -2 c0 -5 -6 -10 -12 -11 -7 -1 -27 -2 -45 -4
-20 -2 -34 3 -37 11 -4 11 6 14 44 14 28 0 50 -4 50 -10z m-2053 -39 c7 -9 17
-21 23 -28 17 -20 11 -48 -15 -79 -14 -16 -40 -53 -56 -82 -17 -29 -42 -57
-54 -62 -13 -5 -44 -25 -69 -44 -41 -31 -49 -34 -76 -24 -29 10 -30 11 -30 79
0 39 4 69 10 69 6 0 10 9 10 19 0 27 55 106 93 135 62 46 137 54 164 17z
m3353 12 c63 -43 74 -91 47 -195 -13 -50 -69 -118 -96 -118 -38 0 -81 26 -96
57 -17 36 -12 73 9 73 16 0 31 103 16 108 -20 7 -9 41 21 66 36 30 65 33 99 9z
m-881 -192 c13 -23 5 -31 -29 -31 -35 0 -42 8 -27 31 15 24 43 24 56 0z
m-1879 -181 c15 -4 26 -15 28 -28 2 -11 12 -24 23 -27 21 -7 20 -7 -1 -30 -13
-14 -43 -28 -72 -34 -27 -6 -56 -18 -64 -26 -17 -16 -77 -35 -115 -35 -14 0
-34 9 -43 19 -10 11 -38 29 -62 41 -39 18 -43 23 -34 40 6 11 17 20 25 20 8 0
15 9 15 20 0 16 7 20 33 20 18 0 37 4 43 9 27 27 143 32 224 11z m254 -16 c13
-15 34 -58 46 -95 18 -57 21 -90 19 -191 -2 -138 -15 -184 -61 -223 -45 -38
-72 -33 -131 28 -65 66 -76 102 -60 183 6 33 12 83 11 111 0 28 8 65 17 84 16
32 112 129 127 129 4 0 18 -12 32 -26z m2343 -14 c9 -12 14 -12 24 -3 10 10
16 10 27 1 8 -7 16 -8 20 -2 4 6 44 8 95 6 74 -3 87 -7 87 -21 0 -9 6 -23 12
-29 19 -19 -5 -30 -82 -36 -36 -3 -99 -11 -140 -17 -41 -5 -85 -11 -98 -12
-12 -1 -27 -8 -32 -16 -6 -11 -12 -12 -22 -4 -17 14 -153 -28 -183 -57 -12
-11 -29 -20 -38 -20 -27 0 -41 -47 -29 -100 7 -27 7 -46 1 -48 -5 -2 -9 -16
-9 -30 1 -26 1 -26 16 -7 13 17 16 18 24 5 5 -8 10 -23 10 -32 0 -10 1 -21 3
-24 1 -3 -25 -6 -58 -6 -140 0 -135 -1 -175 42 -42 45 -48 47 -81 22 -13 -10
-43 -24 -66 -31 -39 -13 -42 -12 -68 11 -23 22 -25 29 -16 47 7 11 16 21 21
21 15 0 12 26 -5 40 -12 10 -19 10 -27 2 -7 -7 -23 -12 -37 -12 -38 0 -98 -32
-111 -60 -6 -14 -29 -48 -51 -76 -21 -28 -39 -56 -39 -61 0 -13 -24 -23 -56
-23 -52 0 -129 -62 -136 -109 -4 -33 -45 -61 -114 -77 -67 -15 -117 -6 -134
26 -24 45 -2 126 47 171 40 38 135 86 185 94 34 6 53 18 91 57 28 28 72 61
105 76 31 14 63 34 70 44 7 10 22 18 32 18 10 0 23 6 27 14 13 21 69 46 106
46 23 0 41 8 60 28 15 15 27 33 27 39 0 7 10 15 23 19 12 4 33 17 46 31 30 30
112 54 187 54 32 1 67 5 78 10 12 5 100 8 196 6 142 -2 177 -5 187 -17z m363
-280 c0 -5 -5 -10 -11 -10 -5 0 -7 5 -4 10 3 6 8 10 11 10 2 0 4 -4 4 -10z
m-69 -77 c-5 -10 -18 -27 -28 -38 -10 -11 -43 -49 -72 -84 -60 -73 -77 -91
-85 -91 -5 0 75 111 99 136 5 6 26 30 45 52 36 43 58 56 41 25z m-502 -62 c-6
-18 -14 -30 -17 -27 -2 3 1 19 8 36 16 40 23 33 9 -9z m-113 -347 c-4 -20 -10
-34 -12 -31 -3 3 -2 21 2 41 3 21 9 35 11 32 3 -3 2 -21 -1 -42z m-3506 16
c13 -8 13 -10 -2 -10 -9 0 -20 5 -23 10 -8 13 5 13 25 0z m120 -70 c14 -11 20
-20 14 -20 -7 0 -22 9 -35 20 -31 25 -12 26 21 0z m3355 -60 c-11 -44 -13 -49
-14 -23 -1 31 16 90 23 82 3 -2 -2 -29 -9 -59z m-3185 -35 c0 -10 -16 -4 -40
16 l-25 20 33 -16 c17 -8 32 -18 32 -20z m51 -32 c13 -15 12 -15 -11 -3 -34
17 -36 20 -18 20 9 0 22 -7 29 -17z m55 -40 c-6 -6 -36 9 -36 18 0 5 9 4 20
-3 10 -7 18 -14 16 -15z m601 -25 c-3 -8 -6 -5 -6 6 -1 11 2 17 5 13 3 -3 4
-12 1 -19z m-553 -3 c11 -8 16 -18 13 -22 -4 -3 -16 3 -27 15 -23 25 -15 29
14 7z m176 5 c0 -5 -2 -10 -4 -10 -3 0 -8 5 -11 10 -3 6 -1 10 4 10 6 0 11 -4
11 -10z m2420 -11 c0 -5 -4 -9 -10 -9 -5 0 -10 7 -10 16 0 8 5 12 10 9 6 -3
10 -10 10 -16z m83 -56 c-3 -27 -11 -54 -19 -62 -12 -13 -16 -12 -34 4 -11 10
-20 22 -20 26 0 21 44 79 60 79 15 0 17 -7 13 -47z m-2633 27 c0 -5 -4 -10
-10 -10 -5 0 -10 5 -10 10 0 6 5 10 10 10 6 0 10 -4 10 -10z m158 -21 c-3 -8
-7 -3 -11 10 -4 17 -3 21 5 13 5 -5 8 -16 6 -23z m359 9 c-3 -8 -6 -5 -6 6 -1
11 2 17 5 13 3 -3 4 -12 1 -19z m2173 -39 c0 -24 -4 -38 -10 -34 -5 3 -10 22
-10 41 0 19 5 34 10 34 6 0 10 -18 10 -41z m-2496 -5 c9 -22 -3 -32 -14 -14
-12 19 -12 30 -1 30 5 0 12 -7 15 -16z m2596 -74 c0 -5 -4 -10 -10 -10 -5 0
-10 5 -10 10 0 6 5 10 10 10 6 0 10 -4 10 -10z m183 -55 c-3 -9 -8 -14 -10
-11 -3 3 -2 9 2 15 9 16 15 13 8 -4z m-2918 -46 c24 -37 25 -43 12 -56 -14
-14 -18 -13 -37 5 -14 13 -18 22 -10 27 8 5 8 10 -1 21 -10 12 -7 44 4 44 3 0
17 -19 32 -41z m2682 -1 c-3 -8 -6 -5 -6 6 -1 11 2 17 5 13 3 -3 4 -12 1 -19z
m-196 -41 c-17 -17 -24 -1 -9 22 11 18 14 19 16 5 2 -9 -1 -21 -7 -27z"/>
<path d="M7210 7412 c0 -4 -13 -13 -30 -19 -16 -6 -30 -16 -30 -22 0 -6 6 -8
14 -5 8 3 15 -3 18 -13 3 -12 21 -24 47 -31 23 -7 39 -17 35 -23 -3 -5 -14 -7
-24 -4 -9 3 -28 1 -42 -4 -32 -12 -88 -21 -160 -26 -67 -4 -70 11 -8 37 36 15
54 38 30 38 -5 0 -10 -5 -10 -11 0 -5 -4 -8 -9 -5 -5 3 -20 -3 -34 -14 -14
-11 -31 -20 -39 -20 -15 -1 -48 -24 -48 -34 0 -4 10 -11 23 -16 15 -6 17 -9 6
-9 -9 -1 -19 -8 -23 -16 -3 -8 -16 -15 -30 -15 -14 0 -28 -5 -31 -10 -4 -6
-11 -8 -16 -5 -5 4 -9 2 -9 -3 0 -6 -20 -20 -45 -33 -45 -24 -58 -47 -23 -41
10 2 18 1 18 -1 0 -8 -106 -76 -135 -87 -24 -9 -26 -8 -20 9 3 11 2 22 -4 25
-5 3 -12 -5 -15 -18 -3 -12 -16 -34 -29 -47 -52 -53 -140 -155 -146 -170 -8
-20 -85 -89 -100 -89 -7 0 -9 -5 -6 -10 10 -15 -19 -39 -88 -72 -34 -17 -77
-43 -95 -59 l-32 -29 32 6 33 6 -26 -24 c-14 -13 -35 -28 -45 -34 -10 -7 -16
-15 -13 -18 8 -8 129 54 175 89 17 13 48 27 70 31 21 3 45 11 52 17 7 5 15 7
18 4 7 -7 -173 -97 -193 -97 -6 0 -18 -6 -25 -13 -7 -7 -32 -21 -56 -31 -23
-11 -47 -26 -54 -34 -7 -7 -44 -38 -83 -67 -76 -58 -171 -150 -142 -139 25 9
21 -11 -7 -38 -13 -13 -44 -43 -70 -68 -33 -32 -49 -41 -54 -32 -6 9 -17 3
-38 -20 -28 -32 -28 -32 -2 -9 16 14 31 21 35 17 4 -3 -25 -39 -63 -79 -109
-112 -197 -224 -188 -239 3 -4 10 -6 15 -3 12 8 11 -2 -2 -27 -8 -14 -8 -23 0
-31 6 -6 11 -17 11 -25 0 -8 10 -22 22 -32 20 -16 21 -21 10 -44 -9 -20 -9
-31 0 -45 10 -16 6 -28 -27 -75 -37 -54 -65 -72 -65 -41 0 7 6 18 14 22 8 4
18 20 21 36 6 23 4 27 -13 27 -12 0 -23 9 -27 20 -8 26 -35 26 -35 1 0 -11 -4
-23 -10 -26 -16 -10 -12 32 5 49 16 16 21 41 6 31 -5 -3 -11 3 -13 12 -3 14
-8 12 -31 -12 -15 -16 -27 -37 -27 -47 0 -9 -6 -19 -12 -21 -10 -4 -10 -6 0
-6 14 -1 16 -37 2 -46 -5 -3 -10 -12 -9 -18 0 -9 2 -9 6 1 2 6 12 12 20 12 10
0 13 -5 8 -17 -4 -10 -11 -33 -17 -50 -5 -18 -14 -33 -20 -33 -12 0 -68 -59
-68 -71 0 -4 -16 -24 -35 -44 -19 -20 -40 -50 -47 -66 -15 -34 -33 -39 -24 -6
17 58 19 80 8 73 -7 -4 -12 -12 -12 -17 0 -6 -20 -44 -45 -85 -25 -40 -45 -80
-45 -87 0 -7 -9 -13 -20 -14 -25 -2 -25 1 5 62 13 28 25 59 25 70 0 11 16 42
35 69 38 54 43 68 20 60 -12 -5 -14 0 -9 25 5 24 3 31 -9 31 -13 0 -14 5 -7
28 16 51 20 82 12 82 -9 0 -35 -63 -46 -112 -6 -28 8 -40 17 -15 3 7 6 4 6 -6
1 -25 -18 -59 -29 -52 -5 3 -22 -17 -37 -44 -16 -28 -36 -53 -45 -57 -10 -3
-18 -11 -18 -18 0 -7 -14 -39 -31 -72 -16 -32 -34 -81 -40 -109 -5 -27 -12
-60 -15 -72 -6 -31 11 -29 42 4 20 22 24 23 21 7 -1 -10 -6 -25 -11 -33 -5 -8
-4 -16 4 -21 10 -6 9 -13 -4 -31 -9 -13 -16 -30 -16 -37 0 -22 25 2 55 55 15
24 29 42 32 40 5 -5 -17 -48 -29 -57 -4 -3 -12 -18 -17 -34 -14 -35 8 -32 26
5 l13 24 0 -26 c0 -14 -11 -43 -25 -63 -14 -20 -25 -41 -25 -46 0 -18 18 -10
39 17 12 14 25 23 29 19 4 -4 -10 -23 -31 -42 -35 -32 -50 -74 -27 -74 7 0 7
-7 0 -21 -7 -11 -9 -23 -6 -26 8 -8 26 7 26 23 0 8 3 14 8 14 4 0 25 16 47 35
22 19 43 35 47 35 4 0 12 9 17 19 9 16 8 18 -9 14 -11 -3 -20 -9 -20 -14 0 -5
-9 -9 -20 -9 -23 0 -24 3 -7 32 15 29 39 48 52 44 6 -2 10 9 11 24 1 25 -1 27
-17 17 -11 -7 -19 -15 -19 -19 0 -5 -7 -8 -15 -8 -23 0 -18 13 20 50 25 25 44
34 72 34 28 1 45 10 69 34 17 18 38 32 46 32 8 0 29 16 47 36 28 31 36 44 40
74 1 3 16 11 34 19 17 8 43 23 56 33 21 16 22 18 5 18 -11 0 -52 -25 -92 -55
-72 -55 -86 -59 -56 -17 22 32 4 26 -40 -13 -21 -19 -46 -35 -55 -35 -11 0 -4
11 22 35 20 18 37 39 37 44 0 6 13 24 30 41 16 16 24 30 18 30 -6 0 -30 -20
-53 -45 -29 -33 -46 -44 -59 -39 -11 4 -24 -2 -36 -16 -11 -13 -28 -24 -38
-25 -29 -4 -52 -17 -52 -30 0 -7 -7 -15 -15 -19 -17 -6 -21 9 -5 19 6 4 19 24
30 46 19 37 50 54 50 27 0 -16 29 23 30 40 0 7 11 24 25 38 14 14 25 31 25 38
0 7 11 23 25 36 14 13 25 28 25 33 0 5 12 22 28 37 15 15 32 36 38 46 7 10 19
18 28 16 9 -2 16 3 16 11 0 21 30 77 42 77 6 0 9 -19 6 -45 -2 -25 0 -45 4
-45 5 0 8 4 8 8 0 11 78 47 85 40 5 -5 -19 -32 -54 -60 -11 -10 -21 -25 -21
-35 0 -13 6 -11 30 12 17 16 30 25 31 19 1 -5 2 -20 2 -33 3 -33 17 -35 48 -7
31 29 69 50 69 38 0 -5 -9 -17 -21 -28 -11 -10 -25 -28 -31 -39 -9 -16 -8 -18
3 -7 7 6 21 12 31 12 10 0 18 5 18 10 0 6 10 10 23 9 l22 0 -22 -9 c-13 -5
-23 -14 -23 -20 0 -5 -7 -10 -15 -10 -8 0 -15 -9 -15 -20 0 -17 3 -19 19 -10
40 21 42 5 5 -35 -31 -34 -27 -40 15 -19 36 18 76 12 85 -12 5 -14 1 -16 -29
-11 -29 5 -37 2 -43 -12 -4 -10 -24 -37 -44 -60 -29 -31 -45 -41 -69 -41 -29
0 -105 -37 -96 -46 2 -2 20 3 40 11 40 16 104 20 126 6 21 -13 -17 -30 -81
-36 -42 -4 -45 -6 -23 -14 18 -8 16 -10 -17 -31 -21 -12 -38 -24 -38 -26 0 -2
21 -1 48 2 45 6 46 6 27 -11 -18 -15 -18 -16 -2 -11 10 3 23 6 28 6 6 0 8 4 4
10 -6 10 91 80 112 80 6 0 13 5 15 11 6 18 36 -1 40 -26 4 -21 -2 -26 -52 -44
-31 -12 -60 -21 -64 -21 -4 0 -14 -6 -22 -14 -11 -11 -11 -16 -1 -20 6 -2 1
-4 -12 -3 -18 2 -28 -7 -43 -35 -11 -21 -26 -38 -33 -38 -7 0 -23 -9 -36 -20
-23 -18 -23 -19 -4 -20 37 0 -34 -30 -73 -30 -19 0 -32 -3 -29 -7 4 -3 2 -12
-3 -18 -19 -23 21 -27 40 -5 9 11 24 20 31 20 8 0 -8 -21 -34 -46 -27 -25 -55
-43 -62 -40 -18 7 -66 -18 -85 -44 -8 -11 -21 -20 -30 -20 -8 0 -24 -7 -34
-15 -11 -8 -28 -15 -38 -15 -10 0 -18 -5 -18 -11 0 -6 -9 -9 -19 -6 -14 3 -18
1 -14 -9 3 -8 12 -14 21 -14 12 0 13 -3 4 -12 -9 -9 -15 -8 -26 8 -13 17 -18
18 -45 7 -40 -14 -42 4 -6 38 13 13 25 30 25 37 0 6 5 12 12 12 6 0 9 2 7 5
-3 2 -21 0 -39 -5 -45 -13 -93 -66 -126 -140 -9 -19 -21 -38 -28 -42 -8 -5 -8
-10 1 -19 9 -9 5 -18 -18 -39 -21 -21 -29 -37 -29 -63 0 -20 -4 -39 -10 -42
-5 -3 -10 -19 -10 -35 0 -15 -7 -30 -15 -34 -8 -3 -15 -13 -15 -22 0 -24 -29
-111 -57 -171 -14 -29 -22 -56 -19 -62 11 -17 -16 -102 -38 -123 -15 -14 -17
-22 -8 -25 14 -5 17 -53 3 -53 -13 0 -32 -94 -20 -98 5 -2 9 -11 9 -19 0 -9 6
-13 15 -9 10 3 15 -1 15 -14 0 -10 4 -22 10 -25 18 -11 12 -55 -7 -56 -15 0
-15 -2 -3 -7 8 -4 15 -11 16 -17 4 -38 18 -53 52 -58 21 -3 52 -9 70 -13 32
-7 33 -6 26 22 -4 16 -18 44 -32 61 -25 34 -24 59 3 70 15 5 40 -3 145 -50
126 -55 175 -68 324 -83 154 -16 311 -13 346 6 10 5 28 10 40 10 11 0 38 11
60 25 22 14 48 25 58 25 26 0 102 56 102 75 0 8 9 15 19 15 34 0 53 11 42 24
-12 15 13 56 34 56 8 0 11 7 8 19 -3 10 0 22 6 25 6 4 11 18 11 31 0 13 11 37
25 53 13 16 22 32 19 35 -3 3 3 10 13 15 20 11 73 5 73 -9 0 -5 14 -16 30 -24
17 -9 28 -20 25 -24 -5 -8 23 -23 93 -51 19 -7 52 -10 79 -7 42 4 45 3 29 -8
-10 -8 -16 -20 -14 -27 3 -7 -3 -24 -13 -37 -23 -28 -24 -41 -5 -41 7 0 16 -9
19 -20 4 -16 14 -20 46 -20 35 0 40 -3 38 -20 -5 -30 -44 -53 -91 -54 -30 -1
-42 -6 -44 -18 -3 -15 1 -15 44 -2 55 16 124 19 124 4 0 -6 -7 -13 -15 -16
-11 -5 -13 -10 -5 -19 14 -17 1 -26 -26 -19 -35 9 -80 -4 -65 -19 19 -19 12
-29 -18 -25 -24 3 -27 1 -23 -16 4 -15 1 -18 -16 -14 -14 4 -22 0 -25 -13 -6
-22 -62 -34 -97 -21 -24 10 -23 11 18 17 53 9 46 18 -16 20 -45 1 -55 -1 -102
-25 -26 -13 -73 -13 -65 0 3 6 16 10 28 11 l22 0 -22 11 c-18 9 -33 6 -78 -16
-30 -14 -60 -26 -65 -26 -19 0 -10 -18 13 -24 26 -7 167 14 167 26 0 4 14 8
30 8 17 0 30 -4 30 -9 0 -10 -32 -23 -46 -19 -11 2 -101 -18 -134 -30 l-25
-10 28 -7 c16 -4 48 -5 72 -3 25 3 46 1 48 -5 1 -5 27 -12 56 -15 54 -5 53
-22 -1 -22 -15 0 -30 -5 -33 -10 -3 -5 -30 -10 -60 -10 -64 0 -86 -7 -79 -25
3 -7 -3 -16 -13 -19 -10 -3 21 -4 70 -2 50 1 92 7 99 14 14 14 78 16 78 3 0
-5 -6 -12 -12 -14 -24 -10 37 -7 72 3 22 6 38 6 44 0 7 -7 2 -10 -15 -10 -14
0 -29 -4 -35 -10 -5 -5 -21 -11 -34 -14 -37 -7 -38 -8 -5 -15 17 -4 57 -3 90
0 33 4 61 6 63 4 6 -6 -61 -35 -80 -35 -11 0 -18 -5 -16 -12 3 -8 26 -14 56
-16 40 -2 55 1 71 17 12 12 28 18 43 15 13 -2 16 -1 8 2 -30 13 -29 28 3 42
18 8 41 15 52 17 11 1 24 3 28 4 11 1 3 26 -9 27 -5 0 -17 4 -27 8 -10 5 -31
2 -52 -9 -20 -9 -48 -15 -63 -13 -24 4 -25 5 -7 12 62 24 115 51 115 58 0 5
-9 12 -21 16 -19 7 -16 10 21 27 74 33 183 8 146 -34 -34 -40 -15 -74 36 -64
15 3 35 2 45 -1 16 -7 15 -9 -7 -27 -19 -14 -22 -21 -12 -27 9 -6 6 -12 -13
-20 -26 -12 -26 -32 1 -32 8 0 23 -9 33 -19 19 -19 19 -22 5 -50 -11 -21 -23
-31 -39 -31 -53 0 -59 -59 -8 -75 40 -13 51 -24 35 -34 -7 -4 -14 -20 -15 -36
-2 -23 3 -30 23 -35 l25 -7 -26 -11 c-28 -11 -44 -38 -29 -47 6 -4 10 -17 10
-30 0 -13 7 -30 15 -38 13 -13 13 -17 0 -27 -13 -10 -11 -15 8 -31 13 -11 17
-18 9 -19 -7 0 -10 -5 -6 -11 11 -18 355 12 382 33 17 14 15 34 -7 82 -35 76
-39 116 -19 173 l19 52 -26 42 c-74 116 -72 206 4 251 20 11 53 32 73 45 25
17 51 25 83 25 52 1 85 -19 47 -29 -13 -3 -25 -16 -29 -32 -3 -14 -14 -39 -24
-55 -13 -22 -15 -34 -7 -51 12 -28 83 -68 175 -99 38 -13 76 -27 86 -31 16 -7
17 18 17 442 l0 450 -77 5 c-43 3 -116 4 -163 3 -53 -2 -105 2 -140 11 -30 8
-62 17 -70 19 -8 2 -33 4 -55 4 l-40 2 48 24 c27 14 53 25 59 25 21 0 78 33
78 45 0 29 -33 71 -87 112 -44 32 -67 43 -94 43 -57 0 -69 8 -63 40 7 31 -6
44 -46 46 -14 0 -37 2 -52 2 -46 3 -32 20 22 27 27 4 53 12 57 18 4 7 -9 8
-41 4 -38 -5 -50 -3 -65 12 -11 11 -32 21 -48 23 -25 3 -28 7 -25 33 3 33 26
57 48 48 8 -3 14 1 14 11 0 9 5 16 10 16 6 0 9 -5 8 -11 -4 -15 49 -30 78 -23
14 4 28 20 38 43 8 21 33 53 55 72 23 18 41 39 41 45 0 6 6 17 14 23 18 15 66
24 66 12 0 -19 66 -79 95 -85 17 -4 37 -13 45 -20 8 -8 29 -18 45 -23 26 -8
30 -15 33 -50 3 -38 1 -40 -36 -52 -25 -9 -60 -11 -103 -6 -130 13 -207 11
-226 -7 -21 -22 -18 -25 36 -32 24 -2 47 -9 50 -14 3 -5 23 -15 43 -21 20 -7
38 -17 40 -23 3 -8 20 -6 56 5 34 11 65 15 92 11 53 -9 55 -8 57 21 1 14 9 35
17 47 9 12 16 32 16 44 0 29 22 45 71 54 51 10 74 -9 65 -54 -8 -38 -27 -58
-86 -89 -43 -23 -45 -26 -45 -68 0 -55 -27 -82 -38 -39 -3 14 -10 18 -21 14
-25 -10 -14 -26 34 -51 l43 -23 41 38 c23 20 53 46 67 56 17 12 25 25 22 37
-3 11 0 19 6 19 7 0 11 32 11 95 0 89 -1 95 -20 95 -18 0 -20 4 -14 43 4 23
13 49 20 58 12 13 14 200 14 1116 l0 1100 -25 11 c-17 8 -25 20 -25 36 0 13
11 38 25 54 25 30 25 31 24 223 -1 183 -2 191 -15 149 -8 -25 -16 -81 -18
-125 -7 -136 -31 -281 -49 -299 -20 -20 -67 -165 -67 -207 0 -37 -25 -99 -40
-99 -15 0 1 98 32 185 5 17 12 41 15 55 3 14 9 30 13 35 19 25 43 199 44 310
l1 120 -30 5 -30 6 33 11 c17 7 32 16 32 20 0 29 -24 84 -40 93 -22 12 -41 13
-38 3 1 -5 -4 -20 -10 -35 -12 -30 -42 -38 -42 -13 0 8 7 15 15 15 23 0 18 19
-7 30 -22 8 -21 9 7 9 22 1 26 4 17 13 -9 9 -19 9 -45 0 -40 -15 -58 -15 -34
-1 25 14 21 29 -8 29 -14 0 -25 -4 -25 -8z m19 -151 c18 -12 5 -18 -54 -25
-36 -5 -44 -4 -29 3 12 5 25 14 29 20 7 13 35 14 54 2z m72 -50 c-8 -5 -20 -7
-28 -4 -21 8 -15 13 15 13 20 0 23 -3 13 -9z m-244 -7 c-3 -3 -12 -4 -19 -1
-8 3 -5 6 6 6 11 1 17 -2 13 -5z m163 -8 c-20 -26 -98 -50 -122 -39 -19 8 -15
12 38 30 76 26 101 28 84 9z m-205 -66 c-28 -12 -47 -12 -40 0 3 6 18 10 33 9
24 0 25 -1 7 -9z m-142 -7 c-7 -2 -19 -2 -25 0 -7 3 -2 5 12 5 14 0 19 -2 13
-5z m156 -82 c12 -8 9 -11 -12 -16 -15 -4 -27 -14 -27 -22 0 -12 -18 -14 -112
-12 -62 2 -125 -1 -140 -5 -17 -5 -28 -4 -28 2 0 14 79 41 120 41 27 0 155 14
180 20 3 0 12 -3 19 -8z m-212 -87 c3 -10 -65 -34 -99 -34 -21 0 -21 0 -2 15
10 8 29 15 41 15 12 0 25 5 28 11 8 11 27 8 32 -7z m-3 -144 c23 -5 11 -8 -54
-13 -69 -5 -87 -4 -100 9 -13 13 -8 15 54 13 37 -1 82 -5 100 -9z m35 -70 c24
-11 48 -20 55 -20 17 -1 56 -37 56 -52 0 -8 11 -20 25 -26 21 -10 36 -42 19
-42 -16 0 -44 23 -44 36 0 13 -7 15 -36 9 -33 -6 -36 -5 -31 14 6 23 -23 58
-61 72 -27 11 -153 2 -162 -11 -3 -4 -17 -10 -33 -14 -26 -6 -27 -5 -15 14 9
15 24 20 53 20 22 0 47 5 55 10 24 15 71 11 119 -10z m16 -69 c-8 -13 -45 -15
-45 -2 0 5 10 11 23 13 27 5 31 3 22 -11z m-400 -21 c-28 -12 -37 -12 -30 0 3
6 16 10 28 9 21 0 21 -1 2 -9z m315 -297 c43 -20 83 -45 89 -55 15 -24 5 -43
-14 -28 -7 6 -43 10 -82 9 -48 -2 -77 2 -100 14 -18 9 -56 22 -85 27 -29 6
-63 13 -75 16 -26 5 -31 24 -8 24 8 0 15 5 15 11 0 7 22 10 64 8 36 -2 68 0
72 4 15 14 48 6 124 -30z m-701 24 c-2 -1 -12 -9 -22 -16 -15 -12 -17 -12 -11
3 3 9 13 16 22 16 8 0 13 -1 11 -3z m-59 -47 c0 -5 -7 -10 -16 -10 -8 0 -12 5
-9 10 3 6 10 10 16 10 5 0 9 -4 9 -10z m348 -37 c-10 -2 -26 -2 -35 0 -10 3
-2 5 17 5 19 0 27 -2 18 -5z m87 -103 c3 -6 -5 -10 -19 -10 -14 0 -28 5 -31
10 -3 6 5 10 19 10 14 0 28 -4 31 -10z m-495 -10 c0 -5 -5 -10 -10 -10 -6 0
-28 -11 -50 -25 -22 -14 -43 -25 -47 -25 -13 1 39 40 72 55 37 17 35 17 35 5z
m595 -10 c4 -6 -9 -10 -32 -10 -28 0 -34 3 -23 10 20 13 47 13 55 0z m-647
-144 c-37 -25 -103 -42 -112 -28 -2 4 16 14 42 21 26 7 54 16 62 21 34 20 40
8 8 -14z m242 -56 c11 -7 4 -10 -27 -10 -23 0 -45 5 -48 10 -8 13 55 13 75 0z
m-590 -140 c0 -5 -5 -10 -11 -10 -5 0 -7 5 -4 10 3 6 8 10 11 10 2 0 4 -4 4
-10z m311 -33 c-13 -13 -26 -3 -16 12 3 6 11 8 17 5 6 -4 6 -10 -1 -17z m-34
-33 c3 -9 -3 -23 -16 -35 -11 -11 -21 -24 -21 -30 0 -5 -16 -23 -35 -40 -19
-17 -35 -37 -35 -44 0 -17 -69 -88 -89 -91 -9 -1 -26 -6 -38 -9 -30 -9 -30 8
0 32 12 10 33 36 47 58 24 40 157 175 173 175 4 0 10 -7 14 -16z m230 -56 c15
-7 30 -13 32 -14 10 -7 -38 -44 -51 -39 -13 5 -38 45 -38 60 0 9 29 5 57 -7z
m-147 -38 c-35 -26 -54 -6 -21 21 18 14 27 17 35 9 8 -8 4 -16 -14 -30z m260
20 c0 -5 -9 -10 -20 -10 -11 0 -20 5 -20 10 0 6 9 10 20 10 11 0 20 -4 20 -10z
m228 -42 c18 -15 42 -30 53 -33 17 -6 19 -9 8 -16 -8 -5 -24 -9 -36 -9 -14 0
-23 -6 -23 -15 0 -23 -14 -18 -64 20 -25 19 -48 30 -51 25 -11 -18 -27 -11
-20 9 3 12 0 21 -10 25 -36 13 -11 25 49 23 51 -2 69 -8 94 -29z m-484 -46
c-20 -3 -51 -57 -46 -79 2 -7 -7 -17 -18 -23 -11 -6 -20 -21 -20 -35 0 -25
-46 -67 -87 -79 -18 -6 -22 -4 -17 8 3 9 11 16 17 16 13 0 57 40 57 52 0 5 -7
16 -15 25 -14 14 -18 14 -36 -3 -14 -12 -16 -20 -8 -25 14 -8 5 -39 -11 -39
-5 0 -10 10 -10 23 l-1 22 -19 -24 c-11 -13 -20 -19 -20 -14 0 18 22 73 29 73
4 0 13 16 19 35 9 24 17 32 28 28 10 -4 24 4 37 19 12 13 33 31 46 40 22 15
26 15 59 0 27 -13 31 -18 16 -20z m72 -8 c-9 -8 -16 -18 -16 -22 0 -4 -14 -15
-31 -25 -19 -11 -29 -12 -25 -5 3 7 9 20 12 29 6 17 39 37 62 38 10 1 9 -3 -2
-15z m84 -24 c0 -5 7 -10 15 -10 8 0 15 -9 15 -20 0 -22 -16 -27 -22 -8 -2 6
-20 -22 -40 -63 -36 -74 -59 -104 -116 -146 -33 -25 -48 -28 -57 -13 -15 24
80 164 117 173 11 3 17 10 13 16 -3 6 6 16 22 22 21 8 24 12 13 19 -11 7 -11
11 -1 24 15 18 41 21 41 6z m130 -80 c0 -5 -4 -10 -10 -10 -5 0 -10 5 -10 10
0 6 5 10 10 10 6 0 10 -4 10 -10z m93 -125 c-3 -9 0 -22 7 -30 8 -9 8 -15 2
-15 -6 0 -12 5 -14 11 -3 9 -10 9 -26 0 -30 -16 -30 4 -1 36 23 24 42 23 32
-2z m69 -22 c10 -9 27 -21 37 -27 11 -6 42 -24 69 -40 49 -27 70 -52 56 -65
-4 -3 -9 0 -11 7 -3 6 -12 12 -21 12 -9 0 -43 17 -74 38 -31 20 -71 45 -88 54
-31 18 -33 38 -3 38 9 0 25 -7 35 -17z m-322 -17 c0 -2 -7 -7 -16 -10 -8 -3
-12 -2 -9 4 6 10 25 14 25 6z m110 -42 c0 -16 -16 -19 -25 -4 -8 13 4 32 16
25 5 -4 9 -13 9 -21z m-40 -36 c-1 -7 -11 -26 -24 -42 -18 -21 -30 -27 -45
-23 -16 4 -26 -1 -37 -18 -9 -13 -22 -21 -29 -19 -17 7 40 68 73 78 11 4 26
13 32 21 15 18 30 19 30 3z m-1018 -120 c-9 -9 -12 -7 -12 12 0 19 3 21 12 12
9 -9 9 -15 0 -24z m596 13 c-17 -28 -58 -34 -58 -9 0 11 4 16 10 13 5 -3 18
-1 27 4 27 16 34 13 21 -8z m92 -7 c0 -3 -14 -22 -31 -44 -33 -41 -77 -63 -63
-32 4 9 7 25 8 35 0 9 6 17 14 17 7 0 20 7 28 15 15 15 44 21 44 9z m85 -84
c-3 -5 -13 -10 -21 -10 -8 0 -14 5 -14 10 0 6 9 10 21 10 11 0 17 -4 14 -10z
m-45 -4 c0 -10 -61 -48 -67 -42 -10 10 28 46 49 46 10 0 18 -2 18 -4z m1130
-5 c0 -5 -6 -12 -12 -14 -8 -3 -5 -6 6 -6 14 -1 17 -7 14 -26 -3 -14 -1 -25 6
-25 6 0 4 -5 -4 -10 -23 -15 -83 -12 -107 5 -12 8 -28 12 -37 9 -12 -5 -16 0
-16 19 0 22 7 26 58 39 70 19 92 21 92 9z m-1830 -20 c0 -5 -7 -14 -15 -21 -8
-7 -12 -16 -10 -21 5 -7 -25 -29 -40 -29 -3 0 5 18 17 40 21 36 48 54 48 31z
m600 -5 c0 -11 -19 -15 -25 -6 -3 5 1 10 9 10 9 0 16 -2 16 -4z m120 -5 c0
-12 -20 -25 -27 -18 -7 7 6 27 18 27 5 0 9 -4 9 -9z m50 5 c0 -11 -19 -15 -25
-6 -3 5 1 10 9 10 9 0 16 -2 16 -4z m-720 -31 c0 -8 -7 -15 -15 -15 -16 0 -20
12 -8 23 11 12 23 8 23 -8z m790 -140 c-7 -8 -23 -15 -35 -15 -12 0 -28 -7
-35 -15 -7 -8 -24 -15 -38 -15 -36 0 -183 -40 -207 -57 -11 -7 -28 -13 -38
-13 -10 0 -31 -9 -47 -20 -15 -10 -49 -25 -76 -32 -46 -11 -101 -41 -115 -61
-16 -23 -128 -30 -114 -6 11 16 93 49 109 43 9 -3 16 -1 16 5 0 6 4 11 10 11
5 0 26 11 46 25 37 25 71 34 59 15 -8 -13 1 -13 26 1 11 5 16 15 13 21 -5 7 0
9 14 6 15 -4 23 0 27 13 4 10 14 19 22 19 9 0 14 3 10 6 -3 3 -27 -1 -53 -10
-59 -20 -70 -20 -54 -1 8 9 21 13 34 10 15 -5 17 -4 7 3 -9 7 -10 12 -2 16 6
4 9 12 5 17 -3 6 4 7 19 4 15 -4 38 1 63 14 48 26 67 27 34 1 -14 -10 -23 -20
-20 -22 33 -21 53 -28 63 -20 7 5 35 14 62 21 62 15 153 41 180 51 26 10 31 4
15 -15z m-380 -15 c0 -5 -4 -10 -10 -10 -5 0 -10 5 -10 10 0 6 5 10 10 10 6 0
10 -4 10 -10z m616 -2 c-3 -7 -9 -21 -12 -30 -7 -20 -21 -22 -44 -8 -12 7 -10
11 10 19 19 7 20 10 7 10 -28 1 -9 21 19 21 17 0 24 -4 20 -12z m-478 -14 c-9
-9 -22 -14 -30 -11 -8 3 -4 8 12 15 35 15 37 14 18 -4z m187 -25 c-4 -5 -17
-15 -28 -20 -12 -5 -33 -16 -47 -24 -14 -9 -52 -15 -87 -15 -35 0 -63 -4 -63
-9 0 -15 85 -24 152 -17 50 5 59 3 55 -8 -8 -20 41 -30 90 -18 21 6 58 13 83
16 40 5 43 4 27 -8 -10 -8 -39 -17 -65 -21 -55 -8 -85 -22 -77 -36 4 -5 -7 -9
-22 -9 -16 0 -33 -4 -38 -9 -6 -5 -48 -12 -95 -15 l-85 -6 43 18 c70 29 30 44
-50 18 -24 -8 -59 -16 -78 -19 l-35 -6 40 19 c22 10 51 23 65 28 24 10 24 11
-10 11 -19 1 -47 -5 -62 -13 -15 -8 -42 -17 -60 -21 -44 -9 -99 -25 -120 -36
-10 -5 -24 -6 -33 -3 -13 5 -11 9 10 20 14 8 37 21 53 29 15 8 41 15 57 15 26
0 53 7 140 37 18 6 18 7 -5 13 l-25 6 27 18 c15 10 45 19 67 20 22 1 43 5 47
9 4 4 17 7 28 7 12 0 35 9 51 20 32 21 60 27 50 9z m115 -39 c0 -5 -6 -10 -14
-10 -7 0 -19 -7 -26 -15 -14 -17 -56 -20 -65 -5 -3 6 3 10 15 10 12 0 19 4 16
9 -4 5 2 7 13 4 10 -3 22 0 25 6 9 14 36 14 36 1z m183 -20 c26 0 29 -18 6
-41 -21 -21 -22 -21 -60 -4 l-38 18 27 28 c23 25 29 27 38 14 6 -8 18 -15 27
-15z m108 -33 c-13 -13 -26 -3 -16 12 3 6 11 8 17 5 6 -4 6 -10 -1 -17z m-691
3 c-20 -13 -43 -13 -35 0 3 6 16 10 28 10 18 0 19 -2 7 -10z m-47 -107 c-7 -2
-21 -2 -30 0 -10 3 -4 5 12 5 17 0 24 -2 18 -5z m1283 -14 c35 -21 38 -27 34
-69 -3 -35 -15 -44 -56 -42 -20 2 -46 -3 -58 -11 -24 -16 -46 -12 -46 9 0 17
-31 19 -48 2 -18 -18 -24 -4 -26 62 -3 56 -1 59 14 45 22 -20 39 -19 75 5 38
25 69 25 111 -1z m-873 4 c4 -2 0 -11 -8 -20 -12 -11 -27 -13 -66 -8 -36 5
-54 4 -59 -5 -5 -9 -21 -9 -61 -2 -51 9 -52 10 -15 11 27 1 37 5 33 14 -4 10
15 13 82 14 47 1 89 -1 94 -4z m-703 -13 c-20 -13 -43 -13 -35 0 3 6 16 10 28
10 18 0 19 -2 7 -10z m415 -20 c-3 -5 -13 -10 -21 -10 -8 0 -14 5 -14 10 0 6
9 10 21 10 11 0 17 -4 14 -10z m-465 -10 c0 -5 -4 -10 -10 -10 -5 0 -10 5 -10
10 0 6 5 10 10 10 6 0 10 -4 10 -10z m397 -16 c-3 -3 -12 -4 -19 -1 -8 3 -5 6
6 6 11 1 17 -2 13 -5z m419 -6 c3 -4 -9 -8 -26 -8 -18 0 -29 -4 -25 -10 3 -5
15 -10 26 -10 19 0 49 -21 49 -34 0 -3 -18 -6 -40 -6 -31 0 -38 3 -34 15 4 10
0 15 -11 15 -19 0 -16 -20 6 -30 118 -57 149 -74 140 -79 -5 -4 -14 -19 -20
-34 -10 -26 -41 -38 -41 -16 0 8 -15 10 -47 6 -27 -4 -64 -3 -83 2 -32 7 -33
8 -12 15 12 4 46 5 75 1 41 -5 58 -2 80 13 l28 19 -93 7 c-50 3 -97 11 -102
16 -6 6 -21 10 -34 10 -20 0 -22 3 -12 14 6 8 21 17 33 19 13 3 5 5 -18 7 -51
3 -88 13 -92 25 -4 13 66 35 109 35 25 0 29 3 18 10 -10 6 7 9 53 8 38 -2 71
-6 73 -10z m371 -52 c-29 -29 -53 -49 -55 -45 -6 16 40 87 53 82 7 -2 16 0 20
6 3 6 13 11 20 11 8 0 -9 -24 -38 -54z m-1487 3 c-12 -16 -25 -28 -27 -25 -8
8 25 56 38 56 6 0 1 -14 -11 -31z m850 -55 c0 -2 -17 -4 -37 -3 -29 0 -33 2
-18 8 18 7 55 4 55 -5z m-833 -10 c-3 -3 -12 -4 -19 -1 -8 3 -5 6 6 6 11 1 17
-2 13 -5z m1613 -53 c0 -10 -25 -21 -48 -21 -12 0 -9 4 8 14 31 17 40 19 40 7z
m-153 -36 c-7 -17 -47 -21 -47 -5 0 11 41 31 49 24 2 -2 1 -10 -2 -19z m68 -5
c3 -5 -1 -10 -10 -10 -9 0 -13 5 -10 10 3 6 8 10 10 10 2 0 7 -4 10 -10z
m-434 -40 c50 -9 90 -24 114 -43 6 -4 19 -15 30 -23 20 -15 20 -15 -2 -9 -25
7 -30 -4 -11 -23 9 -9 7 -12 -11 -12 -27 0 -103 21 -111 30 -3 4 -14 10 -24
14 -19 6 -19 7 0 21 18 14 18 14 -9 15 -16 0 -26 -4 -22 -10 3 -5 -3 -10 -14
-10 -12 0 -21 7 -21 16 0 8 5 12 10 9 6 -3 10 3 10 14 0 12 2 21 4 21 2 0 28
-4 57 -10z m309 -44 c0 -3 -4 -8 -10 -11 -5 -3 -10 -1 -10 4 0 6 5 11 10 11 6
0 10 -2 10 -4z m254 -25 c26 -10 12 -17 -48 -26 -29 -5 -43 -11 -36 -15 7 -4
11 -17 8 -28 -5 -18 -3 -19 26 -10 17 6 36 16 41 23 14 17 52 27 75 20 28 -9
15 -25 -21 -25 -26 0 -29 -3 -29 -30 0 -23 -4 -30 -20 -30 -10 0 -24 -9 -30
-20 -14 -27 8 -36 51 -21 40 14 79 14 79 1 0 -5 -6 -10 -13 -10 -18 0 -49 -34
-40 -43 3 -4 14 -7 22 -7 20 0 45 -37 31 -45 -23 -14 -8 -34 30 -40 48 -8 51
-17 8 -32 -60 -21 -107 -26 -123 -13 -14 11 -14 15 1 31 20 22 12 27 -50 31
-37 3 -66 28 -32 28 31 0 16 28 -19 34 -35 7 -58 26 -32 26 10 0 13 7 10 20
-5 17 0 20 28 21 29 2 30 3 7 6 -29 5 -44 28 -25 40 8 5 1 9 -17 13 -39 7 -47
30 -11 30 24 0 26 3 21 24 -10 41 53 69 108 47z m146 -460 c5 -11 10 -22 10
-25 0 -12 -32 -5 -47 10 -14 13 -14 17 -2 25 21 13 27 11 39 -10z m42 -93 c-6
-6 -16 -7 -22 -3 -9 6 -9 9 1 16 17 10 34 0 21 -13z m-387 -17 c-3 -6 -18 -11
-33 -11 -29 0 -20 15 13 22 24 5 29 3 20 -11z m-430 -311 c-11 -5 -31 -8 -45
-8 -23 0 -22 1 5 8 42 11 65 11 40 0z m390 -9 c-37 -17 -86 -59 -72 -62 4 -1
12 -3 17 -4 6 -1 13 -3 18 -4 20 -4 -47 -30 -78 -30 -30 0 -32 2 -14 9 25 10
41 30 24 30 -6 0 -8 5 -4 12 5 8 -8 10 -49 5 -60 -6 -90 9 -35 17 18 3 47 7
63 10 17 2 53 11 80 19 71 21 98 20 50 -2z m-252 -58 c-7 -2 -19 -2 -25 0 -7
3 -2 5 12 5 14 0 19 -2 13 -5z"/>
<path d="M6380 5610 c0 -6 7 -10 15 -10 8 0 15 2 15 4 0 2 -7 6 -15 10 -8 3
-15 1 -15 -4z"/>
<path d="M5350 4640 c0 -5 5 -10 10 -10 6 0 10 5 10 10 0 6 -4 10 -10 10 -5 0
-10 -4 -10 -10z"/>
<path d="M5810 4660 c-8 -5 -12 -11 -9 -14 7 -8 49 5 49 15 0 12 -21 11 -40
-1z"/>
<path d="M6440 7330 c-8 -5 -42 -10 -76 -10 -61 0 -104 -22 -104 -54 0 -28 33
-106 45 -106 9 0 8 -10 -7 -37 -11 -23 -17 -49 -14 -65 3 -15 2 -30 -3 -32
-11 -7 -45 -185 -37 -193 3 -4 45 33 93 81 47 48 99 94 115 104 15 9 28 20 28
24 0 4 5 8 11 8 17 0 199 170 199 186 0 27 -23 62 -48 74 -16 7 -48 9 -87 5
-49 -6 -64 -4 -74 9 -16 19 -21 19 -41 6z"/>
<path d="M108 7013 c7 -3 16 -2 19 1 4 3 -2 6 -13 5 -11 0 -14 -3 -6 -6z"/>
<path d="M6050 6846 c0 -2 7 -7 16 -10 8 -3 12 -2 9 4 -6 10 -25 14 -25 6z"/>
<path d="M6035 6810 c-3 -5 -19 -10 -36 -10 -16 0 -29 -4 -29 -10 0 -5 -6 -10
-12 -10 -20 0 -163 -120 -216 -181 -26 -30 -72 -85 -101 -122 -32 -41 -57 -64
-61 -57 -10 16 -86 -70 -174 -195 -137 -196 -168 -244 -164 -260 2 -13 18 2
59 56 30 41 68 94 83 119 15 25 32 54 39 65 7 11 15 22 18 25 3 3 22 27 42 54
20 27 37 45 37 41 0 -13 -54 -95 -62 -95 -5 0 -8 -4 -8 -10 0 -5 -16 -35 -36
-66 -27 -42 -33 -59 -25 -67 9 -9 14 -9 19 0 4 6 34 26 67 43 33 17 81 49 107
71 26 21 51 39 57 39 6 0 25 15 43 33 18 17 67 63 108 101 133 122 154 143
195 192 22 27 59 67 83 89 62 57 69 73 38 85 -15 5 -28 20 -32 35 -3 14 -14
25 -23 26 -12 0 -12 2 4 9 16 7 17 9 3 9 -9 1 -20 -3 -23 -9z m-35 -60 c0 -5
-7 -10 -16 -10 -8 0 -12 5 -9 10 3 6 10 10 16 10 5 0 9 -4 9 -10z"/>
<path d="M6290 6725 c-8 -9 -8 -15 -2 -15 12 0 26 19 19 26 -2 2 -10 -2 -17
-11z"/>
<path d="M6010 6445 c-17 -21 -8 -28 15 -11 11 8 14 15 8 19 -6 4 -16 0 -23
-8z"/>
<path d="M570 6413 c-8 -3 -18 -11 -22 -17 -5 -8 -8 -7 -8 2 0 19 -38 14 -50
-7 -13 -26 -13 -96 1 -146 12 -42 99 -170 134 -195 11 -8 36 -32 55 -53 61
-68 161 -106 292 -110 36 -1 70 -5 74 -10 11 -11 44 -9 44 3 0 6 -5 19 -12 30
-11 18 -14 18 -30 3 -16 -14 -18 -14 -24 3 -9 25 -45 64 -59 64 -6 0 -22 11
-34 24 -16 17 -20 30 -16 49 8 29 -9 44 -30 27 -12 -10 -26 -8 -70 10 -58 23
-78 46 -75 83 4 49 -1 69 -24 92 -14 13 -28 34 -31 47 -7 21 -8 21 -21 4 -11
-16 -15 -16 -27 -5 -25 26 -41 63 -28 67 16 5 13 29 -5 36 -9 3 -16 6 -17 5
-1 0 -9 -3 -17 -6z m1 -126 c-1 -12 -15 -9 -19 4 -3 6 1 10 8 8 6 -3 11 -8 11
-12z"/>
<path d="M5890 6361 c-67 -73 -79 -106 -22 -57 55 48 70 64 65 70 -10 10 -27
5 -43 -13z"/>
<path d="M5825 6230 c-3 -5 -1 -10 4 -10 6 0 11 5 11 10 0 6 -2 10 -4 10 -3 0
-8 -4 -11 -10z"/>
<path d="M5723 6198 c-6 -7 -14 -20 -19 -28 -7 -13 -5 -13 16 1 25 17 38 39
22 39 -5 0 -14 -6 -19 -12z"/>
<path d="M5495 6010 c-7 -11 2 -30 13 -30 4 0 13 9 20 20 11 17 10 20 -7 20
-11 0 -23 -4 -26 -10z"/>
<path d="M5540 5969 c0 -6 -7 -9 -15 -5 -9 3 -15 0 -15 -9 0 -8 -6 -18 -14
-22 -7 -4 -15 -14 -17 -21 -3 -9 -10 -7 -26 8 -24 22 -58 27 -68 10 -4 -6 -15
-8 -25 -5 -26 8 -103 -63 -96 -90 3 -11 1 -27 -4 -35 -8 -12 -10 -12 -10 -1 0
11 -3 11 -15 1 -23 -19 -18 -37 11 -37 20 0 29 8 46 44 16 34 25 43 41 41 13
-2 23 -13 27 -28 4 -17 8 -21 14 -12 10 17 36 15 36 -4 0 -24 16 -9 76 74 31
42 61 83 67 90 6 8 6 12 -2 12 -6 0 -11 -5 -11 -11z m-100 -65 c0 -8 -4 -12
-10 -9 -5 3 -10 10 -10 16 0 5 5 9 10 9 6 0 10 -7 10 -16z m-30 -14 c0 -5 -5
-10 -11 -10 -5 0 -7 5 -4 10 3 6 8 10 11 10 2 0 4 -4 4 -10z"/>
<path d="M5491 5954 c0 -11 3 -14 6 -6 3 7 2 16 -1 19 -3 4 -6 -2 -5 -13z"/>
<path d="M3810 5890 c0 -5 5 -10 10 -10 6 0 10 5 10 10 0 6 -4 10 -10 10 -5 0
-10 -4 -10 -10z"/>
<path d="M4010 5845 c0 -8 5 -15 10 -15 6 0 10 7 10 15 0 8 -4 15 -10 15 -5 0
-10 -7 -10 -15z"/>
<path d="M3828 5824 c-11 -11 -10 -41 4 -86 11 -39 12 -39 24 -16 17 30 17 55
0 65 -8 4 -15 16 -17 26 -2 11 -7 15 -11 11z"/>
<path d="M4852 5810 c0 -14 2 -19 5 -12 2 6 2 18 0 25 -3 6 -5 1 -5 -13z"/>
<path d="M2220 5790 c0 -5 5 -10 10 -10 6 0 10 5 10 10 0 6 -4 10 -10 10 -5 0
-10 -4 -10 -10z"/>
<path d="M3082 5780 c0 -14 2 -19 5 -12 2 6 2 18 0 25 -3 6 -5 1 -5 -13z"/>
<path d="M3731 5770 c0 -29 1 -32 10 -17 7 11 7 23 0 35 -9 14 -10 11 -10 -18z"/>
<path d="M3775 5754 c7 -49 24 -94 35 -94 8 0 -5 113 -14 129 -17 27 -28 9
-21 -35z"/>
<path d="M1345 5780 c-8 -13 4 -70 17 -87 6 -7 18 -13 28 -13 21 0 50 -31 50
-53 0 -15 3 -15 21 -5 18 11 23 10 44 -14 13 -16 29 -28 35 -28 5 0 10 -4 10
-10 0 -5 -13 -10 -28 -10 -31 0 -68 -32 -57 -49 3 -6 13 -11 22 -11 11 0 13
-6 8 -22 -14 -42 -18 -118 -6 -118 6 0 11 -10 11 -22 0 -12 -3 -18 -7 -15 -3
4 -13 -2 -20 -13 -8 -11 -19 -18 -24 -15 -5 4 -9 2 -9 -4 0 -5 -8 -12 -18 -15
-9 -3 -22 -16 -27 -28 -8 -19 -21 -24 -69 -29 -37 -4 -66 -3 -77 4 -26 16 -34
2 -19 -33 9 -23 10 -33 1 -44 -15 -18 5 -34 22 -17 19 19 47 13 47 -10 0 -15
-5 -20 -22 -18 -13 2 -29 0 -36 -5 -7 -4 -19 -3 -27 4 -9 7 -15 8 -20 0 -3 -5
-14 -10 -24 -10 -11 0 -19 -6 -18 -12 1 -49 -3 -60 -24 -55 -33 9 -33 -19 0
-52 17 -17 31 -36 31 -43 0 -7 5 -20 10 -28 9 -13 11 -13 20 0 5 8 10 25 10
38 0 19 4 22 20 17 19 -6 20 -3 14 22 -4 15 -11 34 -17 41 -7 8 -5 12 5 12 26
0 78 -73 78 -110 0 -20 13 -25 58 -21 12 1 38 -2 57 -8 26 -7 35 -6 39 5 3 8
19 14 37 14 22 0 32 5 36 20 6 24 7 24 36 6 16 -10 33 -11 65 -4 49 11 47 24
-3 34 -39 7 -53 20 -37 36 7 7 25 3 56 -10 42 -19 47 -19 62 -5 9 9 19 12 22
7 12 -15 52 -35 52 -25 0 6 -11 22 -25 36 -31 31 -18 33 20 3 15 -11 43 -24
64 -28 20 -4 58 -16 84 -26 45 -18 49 -18 58 -2 6 10 16 15 25 11 14 -5 15 -3
5 15 -6 12 -23 25 -36 28 -37 9 -31 28 6 20 27 -5 30 -3 27 16 -3 20 -9 23
-53 24 -77 2 -118 21 -82 38 6 3 -5 4 -25 1 -22 -4 -45 -1 -58 7 -26 16 -26
28 0 28 11 0 20 5 20 11 0 5 -8 9 -17 8 -33 -5 -133 49 -133 71 0 4 14 5 30 2
18 -3 30 0 30 7 0 6 7 11 15 11 18 0 21 50 3 68 -13 13 -8 22 14 26 44 9 64
37 36 50 -10 5 -10 7 0 12 6 3 12 12 12 20 0 14 11 18 44 14 18 -2 18 -1 3 15
-10 9 -17 23 -17 31 0 8 -9 14 -19 14 -10 0 -22 7 -25 16 -3 9 -12 14 -20 11
-8 -3 -24 1 -36 10 -30 21 -75 0 -65 -32 3 -11 9 -28 12 -37 3 -10 0 -18 -6
-18 -6 0 -11 6 -11 14 0 7 -6 19 -14 25 -9 7 -13 34 -13 81 0 52 3 70 13 70 8
0 14 -7 14 -15 0 -8 5 -15 10 -15 6 0 10 9 10 19 0 11 -4 23 -10 26 -5 3 -10
15 -10 25 0 10 -12 32 -26 49 -24 29 -29 31 -79 25 -40 -5 -65 -2 -109 15 -63
23 -92 26 -101 11z m192 -342 c-3 -8 -6 -5 -6 6 -1 11 2 17 5 13 3 -3 4 -12 1
-19z m173 -168 c0 -5 -4 -10 -9 -10 -6 0 -13 5 -16 10 -3 6 1 10 9 10 9 0 16
-4 16 -10z m-170 -94 c-15 -15 -12 -27 7 -24 10 2 19 -5 21 -16 3 -16 0 -18
-25 -12 -15 4 -38 18 -50 31 l-23 24 28 14 c30 15 62 3 42 -17z m-140 -113 c0
-18 17 -16 24 2 5 14 9 14 35 1 18 -10 28 -22 27 -33 -4 -23 -25 -28 -32 -8
-5 13 -8 14 -15 3 -6 -10 -11 -10 -21 0 -6 6 -20 12 -29 12 -21 0 -35 17 -45
54 l-7 29 32 -24 c17 -12 31 -29 31 -36z m-100 -3 c0 -5 -7 -7 -15 -4 -8 4
-15 8 -15 10 0 2 7 4 15 4 8 0 15 -4 15 -10z m125 -100 c3 -5 -1 -10 -9 -10
-9 0 -16 5 -16 10 0 6 4 10 9 10 6 0 13 -4 16 -10z"/>
<path d="M4107 5764 c-9 -9 -9 -48 -1 -57 9 -9 34 4 34 17 0 18 -25 48 -33 40z"/>
<path d="M5022 5741 c-6 -17 -7 -31 -3 -31 10 0 25 50 18 57 -3 2 -9 -10 -15
-26z"/>
<path d="M4422 5740 c0 -14 2 -19 5 -12 2 6 2 18 0 25 -3 6 -5 1 -5 -13z"/>
<path d="M756 5722 c-3 -5 4 -18 15 -28 21 -19 21 -19 18 5 -4 25 -23 39 -33
23z"/>
<path d="M2220 5721 c0 -5 5 -13 10 -16 6 -3 10 -2 10 4 0 5 -4 13 -10 16 -5
3 -10 2 -10 -4z"/>
<path d="M3124 5715 c-3 -8 -4 -20 -2 -27 3 -7 7 -1 10 15 6 29 1 36 -8 12z"/>
<path d="M5102 5714 c4 -21 22 -23 26 -1 2 10 -3 17 -13 17 -10 0 -15 -6 -13
-16z"/>
<path d="M5302 5710 c-24 -23 -25 -26 -12 -55 9 -20 10 -19 14 23 2 13 9 28
17 32 7 5 11 11 8 14 -3 3 -15 -3 -27 -14z"/>
<path d="M4791 5704 c0 -11 3 -14 6 -6 3 7 2 16 -1 19 -3 4 -6 -2 -5 -13z"/>
<path d="M3238 5683 c-16 -18 -14 -88 2 -98 8 -5 25 103 17 111 -2 2 -11 -4
-19 -13z"/>
<path d="M4380 5686 c0 -7 7 -19 15 -26 13 -11 15 -8 15 14 0 16 -5 26 -15 26
-8 0 -15 -6 -15 -14z"/>
<path d="M980 5666 c0 -7 7 -19 15 -26 12 -10 16 -9 21 3 3 9 3 21 -1 27 -9
15 -35 12 -35 -4z"/>
<path d="M3190 5664 c0 -11 -9 -30 -20 -42 -30 -32 -52 -99 -54 -165 -2 -36
-8 -62 -16 -67 -15 -9 -5 -30 16 -30 12 0 14 -9 9 -44 -4 -24 -4 -54 0 -66 6
-18 9 -19 22 -8 11 9 14 24 10 59 -5 36 -2 51 10 61 9 7 18 12 20 11 15 -12
33 0 30 20 -2 12 -2 16 0 10 3 -7 9 -13 14 -13 5 0 9 6 9 13 0 37 -34 263 -42
272 -4 5 -8 1 -8 -11z"/>
<path d="M4116 5672 c-2 -4 -1 -14 5 -22 7 -12 9 -10 9 8 0 23 -5 28 -14 14z"/>
<path d="M4760 5660 c0 -24 15 -27 24 -4 9 22 8 24 -9 24 -8 0 -15 -9 -15 -20z"/>
<path d="M1990 5654 c0 -11 7 -29 15 -40 14 -19 14 -19 14 1 0 11 -6 29 -14
39 -15 20 -15 20 -15 0z"/>
<path d="M5147 5657 c-11 -29 -9 -43 4 -30 6 6 9 19 7 29 -3 18 -4 18 -11 1z"/>
<path d="M4367 5644 c-4 -12 -2 -34 4 -50 15 -38 22 -18 11 32 -7 33 -10 36
-15 18z"/>
<path d="M648 5643 c6 -2 12 -11 12 -19 0 -16 16 -19 25 -5 5 10 -25 32 -42
30 -4 0 -2 -3 5 -6z"/>
<path d="M5239 5645 c-1 -3 -2 -8 -3 -12 -1 -5 -5 -13 -9 -20 -4 -6 -2 -15 4
-19 13 -8 29 13 29 39 0 15 -18 25 -21 12z"/>
<path d="M845 5616 c19 -29 42 -40 48 -23 2 7 -9 20 -25 30 -38 23 -41 22 -23
-7z"/>
<path d="M1820 5630 c0 -5 8 -13 18 -19 16 -9 16 -11 -3 -25 -12 -10 -15 -15
-7 -16 7 0 20 7 29 15 14 14 14 18 -2 35 -19 21 -35 26 -35 10z"/>
<path d="M949 5617 c6 -8 8 -17 4 -20 -3 -4 -1 -7 5 -7 14 0 14 2 6 24 -3 9
-11 16 -16 16 -7 0 -6 -5 1 -13z"/>
<path d="M1930 5616 c-14 -18 -7 -32 20 -39 14 -4 20 0 20 13 0 27 -25 44 -40
26z"/>
<path d="M4121 5614 c0 -11 3 -14 6 -6 3 7 2 16 -1 19 -3 4 -6 -2 -5 -13z"/>
<path d="M4289 5623 c-9 -2 -19 -17 -23 -33 -3 -20 -10 -28 -19 -24 -21 8 -26
-24 -14 -90 8 -43 8 -63 -1 -77 -15 -23 -15 -54 -1 -119 14 -66 31 -54 22 17
-4 37 -3 54 4 50 6 -4 13 -48 17 -98 8 -105 12 -118 32 -92 12 16 13 14 8 -17
l-6 -35 16 29 c9 15 16 36 16 45 0 18 23 88 32 96 11 12 19 -67 8 -80 -8 -10
-8 -25 3 -57 8 -24 19 -65 23 -93 l8 -50 7 58 c3 32 14 66 23 76 24 26 20 70
-9 97 -18 17 -25 33 -25 62 0 21 -4 52 -10 68 -5 16 -14 56 -19 89 -18 109
-47 188 -70 184 -3 -1 -13 -3 -22 -6z"/>
<path d="M5140 5578 c-21 -35 -25 -65 -11 -86 11 -18 27 3 36 48 3 19 9 43 11
53 9 29 -15 19 -36 -15z"/>
<path d="M5198 5573 c-18 -21 -33 -103 -18 -103 5 0 14 9 20 20 6 11 16 17 22
14 7 -5 9 -2 5 9 -3 9 -2 19 3 22 13 8 12 18 -3 39 -12 16 -13 16 -29 -1z"/>
<path d="M2455 5565 c4 -11 10 -31 13 -44 5 -26 -4 -24 -40 7 -16 14 -18 13
-18 -4 0 -10 7 -28 15 -38 8 -11 15 -30 15 -42 0 -12 7 -38 15 -57 21 -50 19
-64 -5 -42 -11 10 -21 28 -21 39 -1 14 -3 16 -6 5 -3 -14 5 -59 22 -116 5 -14
3 -23 -4 -23 -6 0 -11 5 -11 12 0 6 -7 19 -15 28 -8 9 -21 45 -30 80 -9 36
-20 73 -25 82 -6 10 -10 26 -10 37 0 10 -7 24 -15 31 -22 18 -20 -6 5 -53 11
-20 20 -56 20 -79 0 -24 7 -52 15 -62 8 -11 15 -34 15 -50 0 -30 -1 -29 -37
24 -21 31 -38 49 -41 41 -2 -7 1 -18 7 -24 6 -6 11 -17 11 -24 0 -6 11 -29 25
-49 28 -41 33 -74 11 -74 -11 0 -7 -15 14 -57 15 -32 25 -60 23 -63 -3 -3 -8
1 -10 8 -10 28 -25 10 -20 -24 8 -48 36 -92 48 -73 6 10 9 9 14 -6 14 -41 29
-65 42 -65 7 0 13 -5 13 -12 0 -6 2 -9 5 -6 3 2 -6 28 -20 56 -31 65 -31 70 0
35 l26 -28 -7 37 c-5 34 -4 36 15 31 26 -7 27 10 6 60 -18 43 -19 50 -5 42 6
-3 10 3 10 15 0 12 5 18 10 15 6 -3 10 0 11 7 0 7 9 -4 19 -26 22 -48 35 -32
16 22 -13 35 -13 41 0 46 10 4 11 11 4 31 -9 24 -14 91 -9 125 1 8 -1 44 -4
80 -4 42 -4 56 2 38 5 -14 12 -59 16 -98 6 -62 11 -75 36 -98 16 -14 29 -34
29 -46 0 -15 3 -17 11 -9 7 7 12 47 12 95 0 46 2 73 5 60 5 -30 22 -18 22 17
0 15 4 31 9 37 14 15 23 84 11 84 -5 0 -10 -7 -10 -15 0 -17 -16 -20 -25 -5
-3 6 -12 10 -19 10 -10 0 -12 -13 -10 -47 3 -36 2 -43 -5 -28 -5 11 -10 37
-10 57 -1 44 -10 70 -22 62 -13 -8 -11 -44 5 -95 16 -49 30 -167 16 -134 -5
11 -9 34 -9 52 -1 17 -5 35 -11 38 -5 3 -10 19 -10 34 0 39 -20 91 -33 88 -7
-1 -17 -9 -24 -17 -10 -13 -12 -11 -13 11 0 30 -35 69 -43 47 -3 -10 -10 -8
-27 7 l-23 20 8 -20z m44 -435 c0 -10 -3 -8 -9 5 -12 27 -12 43 0 25 5 -8 9
-22 9 -30z"/>
<path d="M4202 5555 c0 -16 2 -22 5 -12 2 9 2 23 0 30 -3 6 -5 -1 -5 -18z"/>
<path d="M4883 5564 c-7 -11 -17 -51 -24 -88 -7 -45 -15 -66 -23 -63 -22 9
-66 -217 -47 -236 7 -7 13 -4 18 9 4 10 14 20 22 22 11 2 13 -10 9 -58 -5 -64
2 -75 20 -35 6 14 16 25 22 25 5 0 10 7 10 15 0 8 3 15 8 15 4 0 16 17 27 38
10 20 29 51 41 68 12 17 27 50 34 75 6 24 16 54 22 66 6 13 9 26 6 29 -14 13
-50 -41 -69 -101 -11 -36 -24 -65 -30 -65 -10 0 -5 35 12 80 13 35 25 138 21
179 -3 33 -4 32 -38 -38 -18 -39 -39 -71 -45 -71 -7 0 -9 8 -4 23 27 90 32
155 8 111z m67 -92 c0 -13 -12 -22 -22 -16 -10 6 -1 24 13 24 5 0 9 -4 9 -8z
m-93 -164 c-3 -8 -6 -5 -6 6 -1 11 2 17 5 13 3 -3 4 -12 1 -19z"/>
<path d="M5040 5570 c-11 -7 -11 -15 -2 -42 9 -25 10 -27 7 -6 -4 22 -2 26 10
22 9 -4 15 0 15 9 0 21 -13 28 -30 17z"/>
<path d="M910 5560 c0 -6 6 -20 13 -31 10 -17 9 -23 -1 -26 -17 -7 -4 -23 19
-23 26 0 25 39 -1 68 -23 24 -30 27 -30 12z"/>
<path d="M4970 5555 c0 -8 7 -15 15 -15 8 0 15 7 15 15 0 8 -7 15 -15 15 -8 0
-15 -7 -15 -15z"/>
<path d="M854 5549 c-10 -17 13 -36 27 -22 12 12 4 33 -11 33 -5 0 -12 -5 -16
-11z"/>
<path d="M1396 5511 c31 -55 50 -61 47 -16 -3 32 -17 50 -52 60 l-23 7 28 -51z"/>
<path d="M1970 5552 c0 -19 19 -52 30 -52 15 0 12 12 -10 40 -11 14 -20 19
-20 12z"/>
<path d="M4765 5547 c-4 -10 -5 -21 -1 -24 10 -10 18 4 13 24 -4 17 -4 17 -12
0z"/>
<path d="M2100 5540 c0 -5 5 -10 10 -10 6 0 10 5 10 10 0 6 -4 10 -10 10 -5 0
-10 -4 -10 -10z"/>
<path d="M1891 5527 c-6 -6 -11 -17 -11 -24 0 -17 34 -17 48 0 15 18 -20 41
-37 24z"/>
<path d="M4385 5527 c-4 -10 -5 -21 -1 -24 10 -10 18 4 13 24 -4 17 -4 17 -12
0z"/>
<path d="M2760 5505 c0 -8 5 -15 10 -15 6 0 10 7 10 15 0 8 -4 15 -10 15 -5 0
-10 -7 -10 -15z"/>
<path d="M5011 5497 c-15 -39 -14 -45 5 -19 8 12 13 28 11 35 -3 6 -10 -1 -16
-16z"/>
<path d="M2276 5497 c3 -10 9 -15 12 -12 3 3 0 11 -7 18 -10 9 -11 8 -5 -6z"/>
<path d="M4712 5473 c-16 -30 -25 -103 -13 -103 6 0 11 -16 11 -36 0 -31 2
-35 15 -24 8 7 15 20 15 29 1 9 7 33 14 54 8 20 10 40 5 43 -5 3 -9 -2 -9 -10
0 -9 -5 -16 -10 -16 -7 0 -8 13 -5 34 8 38 -8 57 -23 29z"/>
<path d="M890 5455 c0 -20 48 -68 84 -83 39 -17 44 -8 12 21 -14 13 -26 31
-26 40 0 18 -29 37 -54 37 -9 0 -16 -7 -16 -15z"/>
<path d="M1250 5461 c0 -18 34 -67 67 -95 32 -27 34 -27 58 -12 24 16 24 18 9
41 -8 13 -27 25 -42 27 -16 2 -31 12 -37 26 -10 21 -55 32 -55 13z"/>
<path d="M4796 5463 c-3 -3 -6 -14 -6 -24 0 -10 -8 -33 -18 -51 -18 -31 -38
-108 -29 -108 2 0 16 17 30 38 36 52 56 178 23 145z"/>
<path d="M5272 5430 c-22 -30 -28 -50 -14 -50 8 1 45 71 39 76 -2 2 -13 -10
-25 -26z"/>
<path d="M1915 5440 c-4 -6 4 -19 17 -29 18 -15 25 -17 31 -6 17 31 -30 65
-48 35z"/>
<path d="M5100 5439 c0 -5 5 -7 10 -4 6 3 10 8 10 11 0 2 -4 4 -10 4 -5 0 -10
-5 -10 -11z"/>
<path d="M5225 5431 c-6 -11 9 -23 19 -14 9 9 7 23 -3 23 -6 0 -12 -4 -16 -9z"/>
<path d="M1145 5410 c-8 -13 41 -80 58 -80 7 0 30 -12 50 -26 21 -14 41 -23
44 -20 11 11 -48 88 -63 82 -16 -6 -54 22 -54 41 0 16 -26 17 -35 3z"/>
<path d="M1842 5393 c2 -10 11 -19 21 -21 23 -5 21 10 -4 26 -18 12 -20 11
-17 -5z"/>
<path d="M5183 5357 c-17 -31 -28 -57 -24 -57 10 0 62 91 58 103 -2 6 -17 -15
-34 -46z"/>
<path d="M4421 5344 c0 -11 3 -14 6 -6 3 7 2 16 -1 19 -3 4 -6 -2 -5 -13z"/>
<path d="M1815 5340 c3 -5 8 -10 11 -10 2 0 4 5 4 10 0 6 -5 10 -11 10 -5 0
-7 -4 -4 -10z"/>
<path d="M1910 5342 c0 -10 43 -52 53 -52 3 0 4 6 1 14 -7 17 -54 50 -54 38z"/>
<path d="M1421 5324 c0 -11 3 -14 6 -6 3 7 2 16 -1 19 -3 4 -6 -2 -5 -13z"/>
<path d="M2174 5303 c16 -33 36 -52 36 -34 0 5 -11 23 -26 38 l-25 28 15 -32z"/>
<path d="M2281 5318 c-1 -9 6 -23 14 -32 8 -8 15 -21 15 -29 0 -26 12 -47 26
-47 10 0 8 10 -8 43 -12 23 -25 44 -28 47 -4 3 -10 12 -13 20 -4 12 -6 12 -6
-2z"/>
<path d="M965 5270 c-3 -11 -4 -24 -1 -29 7 -10 86 -20 86 -10 0 13 -50 59
-64 59 -8 0 -17 -9 -21 -20z"/>
<path d="M1910 5274 c8 -8 23 -20 34 -26 16 -8 15 -4 -6 16 -30 28 -48 35 -28
10z"/>
<path d="M2035 5280 c3 -5 8 -10 11 -10 2 0 4 5 4 10 0 6 -5 10 -11 10 -5 0
-7 -4 -4 -10z"/>
<path d="M5240 5257 c-14 -17 -18 -27 -10 -23 25 15 50 39 50 48 0 16 -15 7
-40 -25z"/>
<path d="M3049 5234 c-1 -39 -3 -44 -9 -24 -8 24 -8 23 -9 -8 -1 -36 -20 -35
-22 1 -1 12 -5 2 -10 -23 -5 -25 -13 -46 -19 -48 -15 -5 -12 -75 4 -97 16 -22
3 -67 -31 -105 l-23 -25 -1 25 0 25 -10 -24 c-5 -14 -7 -37 -4 -52 3 -15 1
-30 -4 -34 -7 -4 -11 8 -12 32 0 21 -4 47 -9 58 -16 41 -22 -28 -5 -74 17 -48
7 -104 -20 -115 -8 -3 -12 -14 -9 -28 2 -13 2 -17 -2 -10 -3 7 -14 17 -25 22
-15 9 -18 8 -13 -7 3 -10 -4 -4 -16 12 l-22 30 7 -40 c3 -22 8 -48 11 -57 3
-10 1 -18 -5 -18 -6 0 -11 10 -11 23 0 12 -7 31 -15 41 -8 10 -22 42 -31 69
-19 57 -54 104 -54 73 0 -10 -7 -33 -16 -52 l-16 -34 -19 23 c-10 12 -18 17
-19 10 0 -6 -7 -18 -15 -27 -8 -8 -17 -28 -19 -44 -2 -16 -6 -34 -9 -39 -12
-19 -117 -2 -117 19 0 6 -6 8 -14 5 -8 -3 -26 5 -39 19 -30 30 -42 18 -33 -32
8 -38 -12 -56 -39 -34 -8 6 -20 8 -26 4 -7 -4 -17 0 -23 8 -13 18 -54 29 -61
17 -7 -10 -55 10 -55 23 0 4 -8 8 -17 8 -14 0 -15 2 -4 9 10 6 4 15 -23 36
-20 15 -40 25 -43 21 -4 -4 -1 -11 7 -16 8 -6 11 -10 5 -10 -19 0 -38 18 -30
29 7 13 -11 41 -27 41 -5 0 -8 -6 -7 -12 1 -7 -1 -26 -6 -41 -5 -21 -12 -26
-24 -21 -9 4 -40 11 -70 16 -30 5 -58 11 -62 14 -5 2 -17 -1 -28 -8 -16 -10
-25 -9 -44 1 -45 24 -51 2 -10 -35 34 -31 35 -34 13 -28 -14 3 -32 12 -40 19
-8 7 -29 16 -47 19 -24 6 -34 3 -41 -10 -8 -14 -14 -15 -41 -6 -17 6 -31 7
-31 2 0 -5 16 -12 35 -16 19 -3 38 -10 41 -15 3 -5 21 -7 40 -3 28 5 34 3 34
-10 0 -14 -7 -16 -37 -10 -21 3 -42 10 -48 15 -12 11 -76 11 -94 0 -10 -6 -6
-11 15 -19 28 -10 28 -11 7 -17 -14 -5 -23 -15 -23 -27 0 -18 -4 -19 -35 -14
-44 9 -63 -1 -38 -20 17 -12 16 -13 -7 -14 -20 0 -29 -9 -42 -40 -14 -33 -22
-40 -45 -41 -23 0 -25 -2 -9 -8 15 -6 17 -9 6 -16 -9 -6 -7 -11 11 -21 26 -14
27 -13 -30 -30 -19 -6 17 -33 44 -34 16 0 21 -6 20 -25 0 -28 -26 -50 -70 -58
-32 -5 -155 -50 -193 -69 -19 -10 -26 -8 -45 11 -16 16 -17 20 -5 16 23 -9 58
12 58 35 0 17 -7 20 -47 20 -47 1 -48 1 -27 18 12 9 30 22 40 28 15 9 9 11
-31 11 -88 1 -87 1 -75 23 17 31 70 55 92 41 14 -9 24 -8 41 1 l22 13 -25 3
c-14 2 -27 7 -30 11 -3 3 -17 14 -33 24 -15 10 -27 25 -27 34 0 29 -106 1
-136 -36 -6 -8 -20 -12 -33 -8 -11 3 -21 1 -21 -4 0 -5 5 -9 10 -9 6 0 10 -6
10 -14 0 -9 17 -16 45 -21 25 -3 43 -10 40 -14 -2 -5 -16 -6 -30 -3 -18 3 -25
0 -25 -12 0 -9 5 -16 12 -16 6 0 9 -3 5 -6 -10 -11 -46 7 -76 37 -36 36 -48
23 -24 -28 30 -66 31 -77 9 -94 -12 -9 -28 -19 -36 -22 -9 -3 -10 -6 -2 -6 29
-2 9 -21 -23 -21 -43 0 -46 -17 -5 -31 36 -13 40 -33 5 -27 -14 3 -27 2 -29
-1 -6 -9 -116 -7 -143 3 -19 6 -22 4 -17 -11 4 -10 13 -23 21 -29 11 -10 7
-15 -22 -32 -19 -12 -35 -26 -35 -32 0 -5 -12 -10 -26 -10 -25 0 -26 -1 -11
-23 19 -30 22 -53 13 -99 -5 -23 -14 -38 -22 -38 -10 0 -14 -10 -12 -33 1 -18
-6 -47 -15 -66 -9 -19 -14 -44 -11 -57 3 -12 3 -28 -1 -34 -4 -6 -9 -35 -12
-63 -8 -96 -10 -102 -26 -105 -22 -4 -21 -7 5 -43 l23 -30 -24 -18 c-21 -16
-21 -19 -7 -24 29 -11 66 23 62 58 -2 17 -5 35 -7 40 -12 31 69 10 83 -21 8
-17 19 -24 40 -24 15 0 28 -4 28 -9 0 -5 16 -13 36 -18 44 -10 64 -35 48 -60
-5 -9 -20 -17 -32 -18 -43 -3 -47 -21 -12 -55 18 -17 29 -37 26 -45 -4 -11 1
-13 23 -9 16 3 39 0 52 -7 l24 -13 -25 -6 c-17 -4 -26 -14 -29 -30 -1 -14 -7
-28 -12 -31 -21 -13 4 -39 37 -39 26 0 36 -6 46 -27 9 -19 22 -29 41 -31 34
-4 35 -29 2 -44 -28 -12 -30 -19 -14 -35 17 -17 1 -33 -32 -33 -44 0 -27 -16
32 -31 44 -11 48 -14 27 -20 -53 -14 -156 -20 -163 -10 -3 6 -19 11 -36 11
-30 0 -36 9 -18 27 7 7 7 13 0 17 -5 4 -18 -2 -28 -12 -10 -10 -27 -22 -38
-26 -18 -7 -16 -10 17 -27 38 -20 146 -34 229 -31 40 1 48 -2 59 -23 8 -14 24
-28 37 -32 16 -3 22 -11 19 -20 -6 -15 -2 -15 77 9 29 9 51 9 90 -1 126 -29
126 -30 -13 -30 -161 0 -206 -7 -213 -30 -6 -25 -82 -44 -98 -25 -6 7 -26 16
-45 20 -19 3 -37 10 -40 15 -5 9 24 69 40 80 4 4 4 9 -2 13 -15 9 -151 18
-173 11 -19 -6 -18 -8 5 -26 13 -10 34 -19 45 -19 12 0 21 -5 21 -11 0 -7 -18
-9 -58 -4 -67 8 -85 -5 -96 -68 -4 -21 -9 -44 -12 -50 -2 -7 9 -20 26 -29 31
-17 42 -58 17 -58 -15 0 -57 -41 -57 -55 0 -5 12 -21 27 -37 l27 -28 -32 -6
c-18 -4 -32 -9 -32 -13 0 -3 23 -19 52 -34 34 -19 47 -31 39 -37 -7 -4 19 -10
61 -14 112 -11 148 -18 142 -27 -3 -5 16 -9 43 -10 54 0 143 -16 104 -18 -42
-2 -15 -13 51 -21 35 -4 67 -4 73 1 5 6 3 9 -5 9 -11 0 -11 3 -3 8 14 9 226 7
271 -3 37 -8 51 -23 32 -35 -7 -4 -42 -11 -76 -15 -35 -4 -64 -11 -64 -16 0
-6 9 -7 20 -4 12 4 35 -2 59 -16 37 -20 49 -22 179 -17 151 6 171 10 147 34
-16 16 -21 49 -6 40 5 -3 11 1 14 8 3 8 1 17 -6 19 -7 3 0 8 16 12 30 8 37 35
10 36 -46 1 -77 9 -84 21 -9 15 -2 29 14 26 25 -5 65 13 70 31 4 17 -1 18 -57
14 l-61 -4 30 20 c17 12 38 21 49 21 15 0 16 3 7 14 -10 11 -9 16 5 24 15 8
15 10 0 15 -9 4 -28 2 -42 -3 -14 -6 -40 -10 -57 -10 -21 0 -36 -7 -45 -20
-11 -19 -14 -19 -36 -5 -13 9 -35 15 -48 13 -12 -2 -25 2 -28 7 -3 6 13 11 38
13 49 4 58 22 10 22 -17 0 -28 3 -24 7 6 6 31 8 178 15 53 3 94 17 52 19 -18
0 -18 1 1 9 15 7 9 9 -25 9 -25 1 -70 8 -100 16 -30 8 -81 15 -112 16 -31 1
-62 5 -68 9 -11 7 92 20 161 20 19 0 53 9 75 20 l39 19 -45 2 c-91 5 -134 -2
-150 -22 -10 -12 -27 -19 -45 -19 -17 1 -68 -1 -115 -4 -47 -3 -77 -3 -67 0
14 5 16 9 6 20 -10 12 -2 14 47 15 45 1 53 3 34 9 -18 6 -8 8 40 9 68 2 114
21 88 37 -9 6 -4 10 17 15 33 7 33 7 -70 37 -81 24 -195 37 -195 22 0 -5 -10
-8 -22 -6 -13 3 -27 5 -32 5 -4 1 -5 8 -2 18 4 11 -4 25 -26 44 -32 28 -32 28
-9 29 14 0 32 -6 40 -14 19 -16 111 -31 111 -18 0 5 -25 14 -55 21 -67 15 -88
37 -26 27 30 -5 48 -2 64 9 12 8 28 15 37 15 13 0 13 -1 0 -10 -17 -11 -27
-10 140 -15 63 -1 140 -6 170 -10 49 -7 53 -6 41 9 -7 9 -23 16 -34 16 -28 0
-97 22 -97 30 0 14 -69 21 -89 10 -16 -8 -22 -6 -30 7 -6 10 -11 12 -11 6 0
-7 -11 -13 -24 -13 -19 0 -23 4 -19 19 4 14 -1 21 -19 24 -26 5 171 11 246 7
37 -1 47 1 44 11 -3 8 -18 17 -34 20 -26 5 -23 6 21 13 28 4 59 11 70 16 18 7
16 9 -13 16 l-34 7 32 20 c18 11 46 20 64 19 17 -1 38 3 46 8 11 7 2 10 -30
10 -25 0 -56 7 -70 15 -33 19 -84 19 -100 0 -7 -8 -28 -15 -47 -15 -29 0 -33
2 -24 14 9 11 9 15 -1 19 -7 3 -3 6 9 6 12 1 25 6 29 12 5 8 36 10 106 5 67
-4 104 -2 117 5 15 10 22 8 40 -10 11 -11 21 -28 21 -36 0 -8 9 -15 20 -15 11
0 20 4 20 10 0 5 8 7 18 4 15 -5 15 -4 -2 10 -18 14 -17 15 9 22 15 4 47 17
72 30 24 13 53 24 63 24 11 0 27 9 37 19 10 11 31 25 47 31 42 16 24 24 -47
22 -42 -1 -57 1 -47 7 26 17 2 24 -100 31 -56 4 -104 10 -107 14 -4 3 1 12 11
19 16 12 12 15 -35 25 -30 6 -97 19 -149 28 -123 21 -129 22 -110 34 24 15 2
24 -26 11 -19 -8 -30 -9 -38 -1 -5 5 -24 10 -42 10 -17 0 -47 7 -67 15 -25 10
-57 13 -114 10 -73 -5 -173 10 -173 25 0 4 -11 12 -25 18 -14 6 -25 18 -25 26
0 27 -54 29 -71 3 -4 -5 -9 2 -13 15 -3 12 -20 30 -38 39 -20 10 -33 23 -33
35 0 13 -11 22 -33 29 -45 13 -40 28 8 20 46 -8 52 3 18 37 -21 21 -21 22 -2
29 10 4 31 8 46 8 39 1 43 18 11 45 l-28 25 40 -10 c22 -5 58 -13 80 -16 38
-6 39 -5 22 11 -29 29 -21 39 27 34 28 -3 49 -1 58 7 7 7 53 24 101 39 86 26
87 27 72 49 -22 31 -20 34 28 41 123 16 129 18 124 35 -3 12 5 17 35 19 32 2
38 -1 38 -17 0 -11 -5 -23 -11 -27 -6 -3 -9 -19 -5 -35 4 -22 2 -29 -9 -29 -9
0 -15 -10 -15 -25 0 -16 6 -25 15 -25 8 0 15 -7 15 -15 0 -8 -4 -15 -10 -15
-5 0 -10 -9 -10 -20 0 -11 5 -20 10 -20 6 0 10 -12 10 -26 0 -14 14 -55 31
-90 25 -53 39 -70 85 -99 59 -38 116 -65 179 -84 22 -7 59 -21 83 -32 24 -11
64 -22 90 -26 26 -3 59 -13 74 -21 22 -13 30 -13 42 -3 8 7 20 10 26 6 6 -4
37 -11 68 -15 66 -9 123 2 352 72 41 12 81 24 88 26 20 6 14 -14 -14 -47 -15
-18 -24 -38 -20 -47 4 -10 -6 -26 -26 -45 -20 -18 -27 -29 -18 -29 8 -1 3 -8
-12 -16 -34 -18 -36 -32 -6 -43 15 -5 18 -10 9 -15 -9 -6 -9 -11 0 -22 11 -14
1 -21 -54 -38 -10 -3 -17 -13 -15 -23 2 -12 -8 -23 -29 -33 -18 -8 -33 -18
-33 -21 0 -10 39 -18 45 -9 3 4 14 6 25 3 11 -3 20 0 20 6 0 6 7 11 15 11 8 0
15 -9 15 -20 0 -21 15 -27 25 -10 3 6 23 10 43 10 31 0 64 16 122 58 2 2 -2 7
-10 13 -13 8 -13 10 0 19 20 13 47 13 55 0 4 -6 11 -7 17 -4 7 5 -4 20 -28 41
-26 22 -34 33 -22 33 9 0 20 -4 23 -10 3 -5 11 -10 18 -10 8 0 8 3 -1 12 -21
21 -13 31 13 14 36 -24 34 6 -2 33 -16 11 -22 21 -15 21 7 0 20 -7 28 -15 24
-24 39 -18 54 20 8 19 18 35 23 35 14 0 -1 171 -17 195 -7 11 -11 35 -8 53 3
24 1 32 -9 30 -15 -3 -25 32 -12 41 11 7 4 91 -7 91 -5 0 -10 -19 -12 -42 -3
-35 -5 -28 -12 37 -11 98 6 202 36 226 17 13 18 20 9 37 -17 31 -14 41 23 76
18 18 36 39 39 47 4 10 6 10 6 2 1 -7 7 -13 15 -13 8 0 16 -6 19 -12 5 -13 8
-7 22 38 4 14 7 14 20 0 17 -16 20 -56 5 -56 -5 0 -10 -10 -10 -22 1 -22 1
-22 12 -3 6 11 14 22 18 25 4 3 19 23 34 44 28 42 32 42 16 1 -7 -18 -7 -33 0
-46 12 -22 27 -25 33 -6 2 6 2 -1 1 -18 -4 -28 -3 -28 16 10 19 38 19 39 20
12 0 -37 16 -26 24 17 4 19 13 36 20 39 8 3 12 15 9 31 -3 16 4 44 19 73 26
51 53 157 44 171 -3 5 -2 23 3 39 11 38 -3 66 -30 58 -15 -5 -19 -2 -19 14 0
22 -16 55 -37 79 -7 7 -13 26 -13 42 0 16 -4 31 -9 34 -11 7 -21 122 -14 174
3 25 11 42 19 42 16 0 27 32 18 54 -4 10 -1 16 9 16 8 0 18 7 21 16 11 28 6
89 -9 108 -14 18 -15 16 -16 -30z m-1009 -458 c0 -3 -4 -8 -10 -11 -5 -3 -10
-1 -10 4 0 6 5 11 10 11 6 0 10 -2 10 -4z m-150 -16 c0 -5 -7 -10 -16 -10 -8
0 -12 5 -9 10 3 6 10 10 16 10 5 0 9 -4 9 -10z m25 -20 c3 -5 -3 -10 -15 -10
-12 0 -18 5 -15 10 3 6 10 10 15 10 5 0 12 -4 15 -10z m157 -12 c12 -15 15
-24 8 -26 -13 -5 -52 33 -43 42 10 10 14 7 35 -16z m1048 -94 c0 -13 -4 -24
-10 -24 -5 0 -10 14 -10 31 0 17 4 28 10 24 6 -3 10 -17 10 -31z m-750 -4 c0
-5 -5 -10 -11 -10 -5 0 -7 5 -4 10 3 6 8 10 11 10 2 0 4 -4 4 -10z m-595 -345
c-34 -33 -72 -81 -86 -105 -28 -50 -48 -61 -56 -31 -5 20 -7 21 -24 5 -24 -21
-41 -9 -33 24 11 51 34 91 82 139 43 44 47 46 50 26 4 -29 13 -29 41 0 19 21
26 23 54 14 l33 -11 -61 -61z m-755 55 c12 -8 12 -10 -3 -16 -20 -7 -47 1 -47
16 0 12 30 13 50 0z m-75 -46 c11 -4 46 -8 78 -9 103 0 60 -29 -58 -40 -22 -2
-29 -7 -27 -19 4 -22 -17 -21 -24 2 -3 9 -12 29 -20 44 -19 36 0 44 51 22z
m1772 -651 c-3 -10 -5 -4 -5 12 0 17 2 24 5 18 2 -7 2 -21 0 -30z m-2029 -11
c3 -22 1 -23 -30 -17 -46 10 -53 16 -34 30 27 20 61 13 64 -13z m42 -32 c0 -5
-7 -10 -15 -10 -8 0 -15 5 -15 10 0 6 7 10 15 10 8 0 15 -4 15 -10z m221 -26
c8 -8 21 -14 27 -14 7 0 12 -5 12 -10 0 -7 -6 -7 -18 -1 -11 6 -35 6 -65 -1
-54 -11 -65 -24 -13 -14 19 4 47 4 62 0 26 -7 26 -8 9 -20 -11 -8 -13 -14 -6
-14 7 0 11 -8 9 -17 -1 -10 1 -24 5 -30 6 -9 2 -13 -12 -13 -11 0 -32 -5 -46
-12 -22 -10 -28 -9 -41 10 -10 14 -26 22 -44 22 -16 0 -31 4 -34 9 -7 11 18
21 55 21 16 0 29 5 29 10 0 6 -11 10 -25 10 -14 0 -28 7 -31 15 -4 8 -14 15
-24 15 -10 0 -23 7 -30 15 -11 13 -7 15 28 15 22 0 53 7 68 15 30 16 58 12 85
-11z m-56 -179 c26 -16 34 -25 22 -25 -26 0 -16 -22 19 -40 l29 -15 -40 -3
c-43 -4 -109 24 -140 58 -20 22 -20 21 15 37 37 17 51 15 95 -12z m90 5 c7
-12 -12 -12 -40 0 -18 8 -17 9 7 9 15 1 30 -3 33 -9z m710 -1 c20 0 20 0 0 -8
-23 -9 -52 -3 -62 12 -4 6 2 8 18 4 13 -4 33 -7 44 -8z m-5 -33 c0 -2 -11 -6
-25 -8 -13 -3 -22 -1 -19 3 5 9 44 13 44 5z m117 -50 c9 -9 -109 -6 -132 4
-12 5 8 7 53 5 40 -1 76 -5 79 -9z m-375 -9 c10 -2 21 -6 24 -10 13 -12 -50
-6 -86 9 l-35 14 40 -5 c22 -3 48 -7 57 -8z m-222 -7 c0 -5 -10 -10 -22 -10
-19 0 -20 2 -8 10 19 13 30 13 30 0z m1260 -10 c0 -5 -8 -10 -17 -10 -15 0
-16 2 -3 10 19 12 20 12 20 0z m-1517 -81 c-8 -8 -16 -8 -30 0 -16 9 -14 10
12 11 21 0 26 -3 18 -11z m515 -10 c17 0 32 -5 32 -10 0 -11 -157 -12 -164 0
-10 16 9 23 54 16 25 -3 60 -6 78 -6z m-441 -35 c-3 -3 -12 -4 -19 -1 -8 3 -5
6 6 6 11 1 17 -2 13 -5z m280 -20 c-3 -3 -12 -4 -19 -1 -8 3 -5 6 6 6 11 1 17
-2 13 -5z m-320 -85 l28 -11 -43 -15 c-24 -8 -46 -12 -50 -9 -3 3 0 6 6 6 7 0
12 9 12 20 0 23 7 24 47 9z m196 -16 c-7 -2 -19 -2 -25 0 -7 3 -2 5 12 5 14 0
19 -2 13 -5z m17 -17 c-14 -8 -29 -11 -35 -8 -5 3 1 9 15 13 40 11 47 9 20 -5z
m-117 -246 c-12 -5 -26 -17 -31 -27 -10 -17 -11 -17 -32 2 l-22 20 24 6 c12 4
37 7 53 7 27 1 28 0 8 -8z m42 -50 c3 -5 -3 -10 -14 -10 -12 0 -21 5 -21 10 0
6 6 10 14 10 8 0 18 -4 21 -10z m332 -1 c-14 -8 -22 -8 -30 0 -8 8 -3 11 19
11 25 -1 27 -2 11 -11z m-339 -56 c-10 -2 -28 -2 -40 0 -13 2 -5 4 17 4 22 1
32 -1 23 -4z m-62 -22 c5 -5 20 -11 34 -14 14 -2 -10 -5 -52 -6 -72 -1 -89 5
-71 22 10 10 78 8 89 -2z m302 -128 c-16 -2 -40 -2 -55 0 -16 2 -3 4 27 4 30
0 43 -2 28 -4z m-588 -68 c19 -4 52 -13 72 -21 20 -7 56 -13 81 -12 24 0 53
-5 65 -11 11 -6 35 -11 53 -11 18 0 29 -3 26 -7 -11 -10 -156 -4 -179 8 -14 8
-23 8 -31 0 -13 -13 -67 -15 -67 -2 0 5 8 12 18 15 9 3 -6 3 -34 0 -30 -3 -54
-1 -58 5 -4 5 -32 13 -64 17 l-57 7 30 13 c30 13 76 12 145 -1z m733 -2 c-13
-2 -33 -2 -45 0 -13 2 -3 4 22 4 25 0 35 -2 23 -4z m42 -83 c4 -6 -15 -10 -52
-9 -48 1 -53 3 -28 9 44 11 73 11 80 0z"/>
<path d="M4771 5244 c0 -11 3 -14 6 -6 3 7 2 16 -1 19 -3 4 -6 -2 -5 -13z"/>
<path d="M5308 5228 c-27 -33 -22 -45 7 -18 25 23 32 40 18 40 -5 0 -16 -10
-25 -22z"/>
<path d="M2610 5221 c0 -6 5 -13 10 -16 6 -3 10 1 10 9 0 9 -4 16 -10 16 -5 0
-10 -4 -10 -9z"/>
<path d="M4741 5204 c0 -11 3 -14 6 -6 3 7 2 16 -1 19 -3 4 -6 -2 -5 -13z"/>
<path d="M2170 5201 c0 -16 50 -62 61 -56 13 9 12 10 -26 39 -19 15 -35 22
-35 17z"/>
<path d="M1930 5190 c0 -6 7 -13 15 -17 24 -9 27 1 5 15 -13 8 -20 8 -20 2z"/>
<path d="M2270 5184 c0 -8 5 -12 10 -9 6 3 10 10 10 16 0 5 -4 9 -10 9 -5 0
-10 -7 -10 -16z"/>
<path d="M4491 5184 c0 -11 3 -14 6 -6 3 7 2 16 -1 19 -3 4 -6 -2 -5 -13z"/>
<path d="M5330 5180 c-11 -11 -20 -28 -20 -37 0 -14 6 -11 25 12 36 45 33 63
-5 25z"/>
<path d="M2311 5169 c0 -8 11 -31 25 -50 15 -19 24 -26 20 -16 -3 10 -6 25 -6
33 0 8 -6 14 -14 14 -8 0 -17 8 -19 18 -4 13 -5 13 -6 1z"/>
<path d="M2280 5141 c0 -6 5 -13 10 -16 6 -3 10 1 10 9 0 9 -4 16 -10 16 -5 0
-10 -4 -10 -9z"/>
<path d="M4464 5106 c-3 -8 -4 -31 -2 -52 4 -38 4 -38 15 -14 l12 25 0 -24 c1
-13 4 -22 7 -19 3 4 2 27 -1 52 -7 45 -21 59 -31 32z"/>
<path d="M5460 5110 c0 -5 4 -10 9 -10 6 0 13 5 16 10 3 6 -1 10 -9 10 -9 0
-16 -4 -16 -10z"/>
<path d="M4537 5059 c-4 -16 -3 -18 9 -8 16 13 19 29 5 29 -5 0 -11 -9 -14
-21z"/>
<path d="M996 5035 c4 -8 8 -15 10 -15 2 0 4 7 4 15 0 8 -4 15 -10 15 -5 0 -7
-7 -4 -15z"/>
<path d="M2861 5028 c1 -7 5 -24 9 -38 8 -24 8 -24 9 7 1 17 -3 35 -9 38 -5 3
-10 0 -9 -7z"/>
<path d="M880 5017 c0 -7 14 -23 30 -35 36 -27 38 -22 8 18 -23 32 -38 38 -38
17z"/>
<path d="M4631 5004 c0 -11 3 -14 6 -6 3 7 2 16 -1 19 -3 4 -6 -2 -5 -13z"/>
<path d="M2280 4976 c0 -30 70 -103 89 -91 5 3 19 -7 30 -22 l20 -28 -9 32
c-9 33 -98 133 -119 133 -6 0 -11 -11 -11 -24z"/>
<path d="M4532 4970 c0 -19 2 -27 5 -17 2 9 2 25 0 35 -3 9 -5 1 -5 -18z"/>
<path d="M4396 4965 c-3 -9 -6 -26 -5 -38 1 -16 4 -12 10 12 10 34 6 55 -5 26z"/>
<path d="M5415 4970 c-3 -5 -1 -10 4 -10 6 0 11 5 11 10 0 6 -2 10 -4 10 -3 0
-8 -4 -11 -10z"/>
<path d="M1052 4933 c3 -37 2 -38 -29 -35 -24 1 -33 -2 -33 -13 0 -20 44 -20
64 1 30 29 32 84 5 84 -6 0 -9 -17 -7 -37z"/>
<path d="M4500 4935 c0 -14 5 -25 10 -25 6 0 10 11 10 25 0 14 -4 25 -10 25
-5 0 -10 -11 -10 -25z"/>
<path d="M953 4906 c1 -25 5 -46 10 -46 4 0 6 -3 6 -7 -4 -22 3 -33 17 -33 14
0 14 2 3 16 -7 9 -14 37 -14 62 -1 25 -6 47 -12 49 -8 3 -11 -12 -10 -41z"/>
<path d="M4561 4934 c0 -11 3 -14 6 -6 3 7 2 16 -1 19 -3 4 -6 -2 -5 -13z"/>
<path d="M1795 4930 c3 -5 10 -10 16 -10 5 0 9 5 9 10 0 6 -7 10 -16 10 -8 0
-12 -4 -9 -10z"/>
<path d="M2782 4920 c0 -14 2 -19 5 -12 2 6 2 18 0 25 -3 6 -5 1 -5 -13z"/>
<path d="M4482 4915 c0 -16 2 -22 5 -12 2 9 2 23 0 30 -3 6 -5 -1 -5 -18z"/>
<path d="M5263 4891 c-13 -11 -23 -22 -23 -25 0 -13 20 -5 47 19 33 29 10 35
-24 6z"/>
<path d="M4695 4891 c-3 -5 -1 -12 5 -16 5 -3 10 1 10 9 0 18 -6 21 -15 7z"/>
<path d="M1928 4883 c7 -3 16 -2 19 1 4 3 -2 6 -13 5 -11 0 -14 -3 -6 -6z"/>
<path d="M2792 4870 c0 -14 2 -19 5 -12 2 6 2 18 0 25 -3 6 -5 1 -5 -13z"/>
<path d="M4504 4865 c-4 -8 -10 -12 -15 -9 -5 3 -9 1 -9 -4 0 -20 30 -21 40
-2 13 24 13 30 0 30 -6 0 -13 -7 -16 -15z"/>
<path d="M1261 4857 c-8 -11 -5 -17 16 -26 26 -12 27 -13 8 -23 -11 -6 -22
-13 -25 -15 -9 -8 26 -23 58 -23 31 0 42 12 22 25 -16 10 -12 21 13 32 21 10
20 11 -17 27 -47 20 -60 20 -75 3z"/>
<path d="M1816 4860 c6 -6 28 -13 50 -15 21 -2 31 -2 22 1 -10 3 -18 10 -18
15 0 5 -14 9 -32 9 -22 0 -29 -3 -22 -10z"/>
<path d="M1955 4860 c3 -5 10 -10 16 -10 5 0 9 5 9 10 0 6 -7 10 -16 10 -8 0
-12 -4 -9 -10z"/>
<path d="M2080 4860 c0 -5 5 -10 11 -10 5 0 7 5 4 10 -3 6 -8 10 -11 10 -2 0
-4 -4 -4 -10z"/>
<path d="M5110 4854 c0 -8 5 -12 10 -9 6 4 8 11 5 16 -9 14 -15 11 -15 -7z"/>
<path d="M810 4850 c-12 -8 -11 -10 8 -10 12 0 22 5 22 10 0 13 -11 13 -30 0z"/>
<path d="M1610 4830 c20 -13 40 -13 40 0 0 6 -12 10 -27 10 -22 0 -25 -2 -13
-10z"/>
<path d="M5404 4825 c-10 -8 -14 -15 -7 -15 19 0 43 11 43 21 0 13 -14 11 -36
-6z"/>
<path d="M3041 4814 c0 -11 3 -14 6 -6 3 7 2 16 -1 19 -3 4 -6 -2 -5 -13z"/>
<path d="M1185 4775 c3 -33 0 -45 -9 -45 -8 0 -16 9 -19 20 -6 24 -37 27 -37
3 0 -9 -7 -25 -16 -35 -19 -20 -8 -42 27 -53 10 -4 19 -10 19 -15 0 -5 -19 -3
-41 5 -83 30 -102 14 -44 -36 19 -17 35 -39 35 -49 0 -23 56 -48 72 -32 8 8 7
13 -5 18 -27 10 -20 32 16 50 21 12 27 19 17 21 -37 11 -42 14 -36 21 4 3 30
9 58 12 63 6 82 33 22 30 -55 -3 -64 -1 -64 10 0 6 15 10 34 10 44 0 49 16 14
51 -15 15 -28 35 -28 43 0 9 -4 16 -10 16 -5 0 -8 -19 -5 -45z"/>
<path d="M1518 4803 c6 -2 18 -2 25 0 6 3 1 5 -13 5 -14 0 -19 -2 -12 -5z"/>
<path d="M1980 4795 c7 -9 15 -13 17 -11 7 7 -7 26 -19 26 -6 0 -6 -6 2 -15z"/>
<path d="M770 4671 c0 -5 7 -14 15 -21 12 -10 18 -10 30 0 13 11 13 15 3 21
-17 11 -48 11 -48 0z"/>
<path d="M4803 4663 c-7 -3 -13 -11 -13 -18 0 -7 -6 -16 -12 -18 -9 -4 -8 -6
2 -6 8 -1 21 8 28 20 15 23 13 29 -5 22z"/>
<path d="M4727 4599 c-10 -25 -15 -54 -11 -63 4 -10 -1 -25 -14 -39 -20 -21
-41 -97 -27 -97 9 0 44 43 45 55 0 6 6 22 14 37 10 18 12 38 6 62 -4 20 -4 38
2 44 6 6 8 18 6 28 -2 13 -9 4 -21 -27z"/>
<path d="M4872 4549 c-16 -33 -28 -49 -37 -45 -18 6 -56 -40 -48 -60 8 -22 43
-17 43 6 0 12 10 25 24 31 15 7 28 26 35 51 7 22 15 46 18 54 3 8 1 14 -3 14
-5 0 -20 -23 -32 -51z"/>
<path d="M4381 4554 c0 -11 3 -14 6 -6 3 7 2 16 -1 19 -3 4 -6 -2 -5 -13z"/>
<path d="M4677 4526 c-6 -15 1 -26 15 -26 11 0 10 27 -1 34 -5 3 -11 0 -14 -8z"/>
<path d="M640 4510 c0 -17 49 -62 62 -58 23 8 17 23 -17 46 -39 25 -45 26 -45
12z"/>
<path d="M4495 4500 c-4 -12 -5 -24 -2 -27 3 -2 8 5 12 17 4 12 5 24 2 27 -3
2 -8 -5 -12 -17z"/>
<path d="M4757 4400 c-3 -11 -1 -20 4 -20 5 0 9 9 9 20 0 11 -2 20 -4 20 -2 0
-6 -9 -9 -20z"/>
<path d="M1240 4330 c-8 -5 -12 -11 -10 -14 8 -7 60 6 60 15 0 12 -31 11 -50
-1z"/>
<path d="M730 4264 c0 -14 3 -14 15 -4 8 7 15 14 15 16 0 2 -7 4 -15 4 -8 0
-15 -7 -15 -16z"/>
<path d="M7180 4250 c0 -5 5 -10 11 -10 5 0 7 5 4 10 -3 6 -8 10 -11 10 -2 0
-4 -4 -4 -10z"/>
<path d="M770 3774 c0 -8 5 -12 10 -9 6 3 10 10 10 16 0 5 -4 9 -10 9 -5 0
-10 -7 -10 -16z"/>
<path d="M4607 3753 c-4 -3 -7 -11 -7 -17 0 -6 5 -5 12 2 6 6 9 14 7 17 -3 3
-9 2 -12 -2z"/>
<path d="M6095 3720 c-18 -8 -18 -9 5 -8 14 0 36 4 50 8 24 8 24 8 -5 8 -16 0
-39 -3 -50 -8z"/>
<path d="M1190 3682 c0 -10 66 -32 96 -32 15 0 13 3 -8 14 -36 19 -88 30 -88
18z"/>
<path d="M6045 3570 c-3 -5 3 -10 14 -10 12 0 21 5 21 10 0 6 -6 10 -14 10 -8
0 -18 -4 -21 -10z"/>
<path d="M6090 3570 c0 -5 11 -10 25 -10 14 0 25 5 25 10 0 6 -11 10 -25 10
-14 0 -25 -4 -25 -10z"/>
<path d="M5940 3510 c-32 -7 -30 -7 20 -9 39 0 51 2 40 9 -8 5 -17 9 -20 9 -3
-1 -21 -5 -40 -9z"/>
<path d="M6262 3443 c-23 -2 -40 -8 -37 -14 4 -5 -11 -9 -32 -9 -50 0 -73 -14
-47 -28 27 -15 115 -2 138 20 11 10 26 18 33 18 7 0 13 5 13 10 0 6 -6 9 -12
8 -7 -1 -32 -3 -56 -5z"/>
<path d="M2313 3393 c-12 -2 -24 -11 -27 -19 -7 -18 34 -19 53 -1 11 10 14 10
18 0 3 -7 12 -13 21 -13 13 0 12 4 -6 20 -12 11 -25 19 -29 19 -4 -1 -18 -4
-30 -6z"/>
<path d="M2135 3360 c-3 -5 1 -10 9 -10 8 0 18 5 21 10 3 6 -1 10 -9 10 -8 0
-18 -4 -21 -10z"/>
<path d="M4905 3360 c3 -5 13 -10 21 -10 8 0 12 5 9 10 -3 6 -13 10 -21 10 -8
0 -12 -4 -9 -10z"/>
<path d="M1920 3303 c-14 -3 -29 -9 -34 -14 -17 -15 59 -10 80 6 19 14 19 14
-1 13 -11 0 -31 -3 -45 -5z"/>
<path d="M2120 3300 c-12 -8 -9 -10 12 -10 15 0 30 5 33 10 8 13 -25 13 -45 0z"/>
<path d="M5773 3283 c9 -2 25 -2 35 0 9 3 1 5 -18 5 -19 0 -27 -2 -17 -5z"/>
<path d="M5828 3253 c18 -2 45 -2 60 0 15 2 0 4 -33 4 -33 0 -45 -2 -27 -4z"/>
<path d="M1978 3242 c-10 -2 -18 -8 -18 -13 0 -11 11 -11 30 1 18 11 11 18
-12 12z"/>
<path d="M1855 3220 l-20 -9 20 0 c11 0 27 4 35 9 13 9 13 10 0 9 -8 0 -24 -4
-35 -9z"/>
<path d="M5908 3203 c7 -3 16 -2 19 1 4 3 -2 6 -13 5 -11 0 -14 -3 -6 -6z"/>
<path d="M2450 3189 c0 -5 5 -7 10 -4 6 3 10 8 10 11 0 2 -4 4 -10 4 -5 0 -10
-5 -10 -11z"/>
<path d="M521 3182 l-24 -4 24 -13 c13 -8 34 -19 46 -24 12 -5 23 -17 25 -26
2 -13 5 -13 15 3 10 17 7 22 -25 43 -21 13 -48 22 -61 21z"/>
<path d="M1788 3173 c6 -2 18 -2 25 0 6 3 1 5 -13 5 -14 0 -19 -2 -12 -5z"/>
<path d="M662 3139 c3 -9 23 -15 54 -17 26 -2 54 -8 60 -13 8 -6 14 -6 18 -1
10 17 -17 30 -78 37 -48 6 -58 5 -54 -6z"/>
<path d="M1665 3130 c28 -12 37 -12 30 0 -3 6 -16 10 -28 9 -21 0 -21 -1 -2
-9z"/>
<path d="M440 3060 c0 -5 5 -10 11 -10 5 0 7 5 4 10 -3 6 -8 10 -11 10 -2 0
-4 -4 -4 -10z"/>
<path d="M6198 3043 c7 -3 16 -2 19 1 4 3 -2 6 -13 5 -11 0 -14 -3 -6 -6z"/>
<path d="M6410 3038 c0 -5 -10 -18 -22 -29 -22 -18 -22 -18 -2 -19 11 0 24 4
30 9 5 5 20 11 34 13 25 3 25 3 -7 20 -18 9 -33 12 -33 6z"/>
<path d="M6596 3041 c-7 -11 22 -23 35 -15 5 3 7 10 4 15 -8 12 -32 12 -39 0z"/>
<path d="M1450 3030 c20 -13 53 -13 45 0 -3 6 -18 10 -33 10 -21 0 -24 -2 -12
-10z"/>
<path d="M6213 3023 c9 -2 25 -2 35 0 9 3 1 5 -18 5 -19 0 -27 -2 -17 -5z"/>
<path d="M6660 3020 c0 -5 9 -10 21 -10 11 0 17 5 14 10 -3 6 -13 10 -21 10
-8 0 -14 -4 -14 -10z"/>
<path d="M1536 3011 c-18 -7 -18 -8 -2 -14 10 -4 32 -7 49 -7 l32 1 -25 14
c-28 16 -28 16 -54 6z"/>
<path d="M6098 3003 c6 -2 18 -2 25 0 6 3 1 5 -13 5 -14 0 -19 -2 -12 -5z"/>
<path d="M6193 2993 c-34 -7 -28 -23 10 -24 17 -1 52 -3 77 -4 48 -2 84 10 75
26 -6 9 -118 10 -162 2z"/>
<path d="M1590 2941 c0 -5 -12 -12 -27 -14 -16 -2 -2 -5 30 -6 52 -1 57 1 43
14 -16 17 -46 20 -46 6z"/>
<path d="M6268 2934 c-31 -10 -51 -34 -28 -34 7 0 9 -8 5 -19 -4 -14 0 -21 14
-26 30 -9 43 2 31 25 -8 15 -5 22 12 34 12 9 35 16 50 16 16 0 28 4 28 9 0 12
-71 9 -112 -5z"/>
<path d="M1338 2923 c12 -2 32 -2 45 0 12 2 2 4 -23 4 -25 0 -35 -2 -22 -4z"/>
<path d="M1418 2923 c7 -3 16 -2 19 1 4 3 -2 6 -13 5 -11 0 -14 -3 -6 -6z"/>
<path d="M6345 2893 c-38 -9 -42 -25 -6 -21 19 2 36 9 39 16 4 12 1 13 -33 5z"/>
<path d="M1563 2883 c9 -2 23 -2 30 0 6 3 -1 5 -18 5 -16 0 -22 -2 -12 -5z"/>
<path d="M1336 2871 c11 -10 72 -31 90 -31 8 0 14 5 14 10 0 6 -11 10 -24 10
-14 0 -28 5 -31 10 -3 6 -18 10 -33 10 -15 0 -22 -4 -16 -9z"/>
<path d="M6170 2870 c20 -13 43 -13 35 0 -3 6 -16 10 -28 10 -18 0 -19 -2 -7
-10z"/>
<path d="M6530 2876 c0 -7 40 -14 44 -7 3 4 -6 8 -20 9 -13 1 -24 0 -24 -2z"/>
<path d="M1465 2840 c-3 -5 3 -10 14 -10 12 0 21 5 21 10 0 6 -6 10 -14 10 -8
0 -18 -4 -21 -10z"/>
<path d="M1128 2823 c7 -3 16 -2 19 1 4 3 -2 6 -13 5 -11 0 -14 -3 -6 -6z"/>
<path d="M3480 2808 c0 -16 5 -28 10 -28 13 0 13 20 0 40 -8 12 -10 9 -10 -12z"/>
<path d="M6613 2813 c-19 -7 -16 -23 5 -24 11 0 7 -4 -11 -11 -31 -11 -27 -28
7 -28 26 0 40 13 50 48 6 18 4 22 -16 21 -13 0 -29 -3 -35 -6z"/>
<path d="M7380 2799 l-25 -10 25 -20 c14 -11 36 -29 50 -40 13 -12 35 -28 47
-36 l23 -15 0 60 c0 45 -4 61 -16 66 -23 9 -75 6 -104 -5z"/>
<path d="M1550 2710 c0 -5 21 -10 48 -9 38 1 42 2 22 9 -36 12 -70 12 -70 0z"/>
<path d="M5695 2540 c-3 -5 -17 -10 -31 -10 -13 0 -24 -4 -24 -10 0 -5 8 -9
18 -9 26 2 79 16 64 18 -7 0 -10 6 -7 11 3 6 2 10 -4 10 -5 0 -13 -4 -16 -10z"/>
<path d="M5740 2540 c20 -13 43 -13 35 0 -3 6 -16 10 -28 10 -18 0 -19 -2 -7
-10z"/>
<path d="M4290 2513 c-1 -15 -6 -38 -14 -51 -11 -21 -14 -21 -25 -8 -7 8 -11
19 -8 23 3 4 1 18 -4 31 -9 23 -43 30 -54 12 -3 -5 -15 -10 -26 -10 -12 0 -19
-7 -19 -20 0 -11 -5 -20 -11 -20 -5 0 -7 -4 -4 -10 3 -5 -3 -10 -14 -10 -11 0
-24 -7 -29 -15 -6 -12 -26 -16 -83 -16 -41 0 -88 2 -104 5 -21 5 -24 4 -11 -2
15 -6 16 -11 7 -16 -7 -5 -18 -3 -24 3 -6 6 -31 11 -55 11 -24 0 -52 5 -62 10
-37 20 -121 30 -159 20 -20 -5 -85 -10 -146 -11 -119 -3 -135 -5 -135 -23 0
-7 -23 -11 -63 -12 -47 0 -73 -6 -99 -22 -22 -14 -52 -22 -79 -22 -37 0 -49 5
-72 32 -16 17 -36 45 -45 62 -12 24 -17 27 -20 14 -4 -21 -13 -23 -29 -7 -8 8
-14 6 -22 -8 -15 -28 -2 -62 25 -69 13 -3 24 -10 24 -15 0 -5 11 -15 25 -21
23 -10 23 -12 7 -25 -15 -13 -15 -14 9 -9 21 5 30 0 43 -19 9 -14 24 -25 32
-25 12 0 15 -6 11 -21 -4 -15 -2 -19 9 -15 15 6 40 -30 36 -51 -2 -7 6 -13 17
-13 33 0 51 -11 51 -32 0 -13 5 -18 14 -15 10 4 16 -2 18 -21 2 -19 10 -28 24
-30 17 -2 21 -8 16 -25 -3 -12 -14 -28 -25 -36 -15 -11 -16 -15 -6 -22 8 -4
19 -3 26 3 10 8 12 7 7 -6 -5 -12 0 -16 20 -16 14 0 26 -4 26 -10 0 -5 -4 -10
-10 -10 -5 0 -10 -7 -10 -15 0 -8 5 -15 11 -15 6 0 9 -9 6 -20 -3 -12 1 -24
11 -29 16 -9 16 -10 0 -16 -22 -9 -24 -25 -3 -25 8 0 15 -7 15 -16 0 -8 -4
-12 -10 -9 -11 7 -14 -47 -3 -58 7 -8 53 19 69 41 6 8 13 11 17 6 7 -11 -29
-93 -52 -116 -9 -9 -27 -31 -41 -48 -13 -16 -29 -30 -35 -30 -6 0 -22 -11 -35
-25 -20 -21 -29 -23 -66 -18 -33 4 -50 1 -77 -16 -35 -21 -50 -20 -40 5 6 16
-13 19 -22 4 -3 -5 -17 -10 -30 -10 -13 0 -25 -6 -27 -12 -3 -9 -29 -12 -83
-12 -44 1 -71 -2 -60 -6 17 -6 15 -9 -15 -24 -48 -23 -98 -68 -82 -74 6 -2 12
-8 12 -13 0 -14 -32 -11 -49 5 -26 23 -130 22 -174 -1 -4 -3 -7 -1 -6 4 3 20
-2 24 -16 13 -9 -7 -32 -13 -51 -12 -20 1 -56 -8 -82 -19 -105 -47 -122 -52
-116 -34 3 7 14 15 25 18 10 3 19 10 19 15 0 12 -47 25 -62 16 -5 -4 -37 -8
-70 -9 -33 -2 -65 -8 -71 -14 -6 -6 -21 -11 -33 -11 -32 0 -54 -10 -54 -25 0
-23 20 -28 45 -11 32 21 53 12 47 -20 -5 -28 5 -31 23 -7 8 10 19 14 30 10 14
-6 15 -10 5 -23 -10 -12 -11 -17 -1 -27 10 -9 16 -7 31 11 19 23 40 29 40 12
0 -5 8 -10 18 -10 10 0 23 -5 29 -11 8 -8 23 -6 54 4 24 8 47 13 52 10 12 -7
-3 -23 -23 -23 -15 0 -30 -18 -30 -36 0 -2 14 -1 30 3 29 5 42 -8 20 -22 -5
-3 -10 -14 -9 -23 0 -11 3 -12 6 -4 2 6 12 12 20 12 9 0 26 10 37 22 12 13 34
34 49 47 l27 25 16 -22 c8 -12 22 -22 30 -22 21 0 17 -12 -13 -37 -14 -13 -23
-26 -18 -31 4 -4 10 -1 12 6 4 10 43 18 43 9 0 -16 -36 -71 -56 -85 -14 -9
-38 -29 -53 -44 -21 -20 -31 -24 -40 -15 -16 16 -14 57 4 63 8 4 15 12 15 20
0 8 9 14 20 14 23 0 26 13 6 30 -8 6 -13 19 -10 28 2 9 -1 7 -8 -6 -16 -32
-104 -123 -131 -136 -11 -6 -41 -36 -65 -66 -65 -82 -154 -177 -144 -155 38
89 66 131 123 184 64 59 74 90 19 57 -17 -9 -30 -12 -30 -7 0 15 -23 14 -46
-3 -18 -14 -18 -15 -1 -45 l18 -31 -25 0 c-19 0 -24 -4 -19 -16 3 -9 0 -20 -8
-25 -19 -12 -25 -11 -43 7 -15 14 -20 12 -61 -30 -25 -25 -49 -46 -53 -46 -10
0 -181 -171 -194 -194 -9 -16 -7 -18 6 -13 14 5 15 3 6 -13 -13 -24 4 -37 28
-19 14 11 15 11 5 0 -16 -18 5 -39 46 -47 20 -4 31 -14 35 -30 l7 -25 36 28
36 28 -5 -63 c-4 -34 -2 -63 3 -63 13 -2 19 -4 67 -19 38 -12 59 -40 30 -40
-24 0 15 -19 53 -25 34 -6 37 -9 41 -46 3 -33 -1 -44 -24 -66 -15 -15 -28 -30
-28 -35 0 -4 19 -8 43 -8 23 0 38 -4 32 -8 -13 -10 -55 -99 -55 -118 0 -8 -7
-17 -15 -20 -23 -9 -19 -44 5 -45 38 -3 42 -4 54 -21 12 -17 99 -18 1438 -18
1263 0 1426 2 1432 15 3 8 12 15 21 15 8 0 15 7 15 16 0 10 16 32 35 51 26 25
35 43 35 66 0 56 10 74 53 93 25 12 47 31 56 51 9 17 23 34 32 36 9 2 22 18
30 36 8 17 17 31 20 31 7 0 22 40 20 54 -1 4 3 14 9 21 6 7 9 18 8 25 -5 23
22 22 30 -1 9 -23 9 -23 14 3 3 15 1 33 -3 40 -5 7 -9 22 -9 32 0 17 2 18 18
4 29 -25 48 -27 66 -7 9 11 16 31 16 45 0 23 -2 25 -16 13 -15 -12 -16 -11
-10 8 6 17 -1 31 -27 60 -120 130 -182 193 -192 193 -6 0 -22 11 -35 25 -24
26 -45 32 -54 16 -9 -14 5 -41 21 -41 10 0 12 -6 8 -19 -4 -14 0 -21 15 -26
11 -3 20 -12 20 -18 0 -7 15 -29 33 -51 17 -21 44 -53 60 -71 26 -32 35 -55
19 -55 -4 0 -16 15 -27 33 -10 17 -44 57 -75 87 -31 30 -73 79 -95 108 -21 28
-42 52 -46 52 -4 0 -9 9 -12 19 -3 14 -11 18 -26 14 -15 -4 -21 -1 -21 11 0 9
7 16 15 16 12 0 14 4 6 17 -7 13 -20 17 -53 15 -32 -2 -39 0 -28 7 10 7 11 11
3 11 -7 0 -10 7 -6 17 4 11 3 14 -5 9 -15 -9 -15 -41 0 -69 10 -20 10 -21 -5
-9 -9 8 -21 11 -26 7 -16 -9 -71 24 -71 43 0 20 -20 38 -77 70 -43 23 -73 28
-73 12 0 -5 6 -10 13 -10 17 0 79 -69 72 -80 -13 -21 -86 27 -112 75 -23 40
-26 3 -4 -41 12 -26 20 -48 18 -51 -10 -9 -82 72 -79 89 2 12 -1 16 -11 12
-23 -9 -32 17 -12 33 24 17 35 17 35 -2 0 -8 5 -15 10 -15 6 0 10 7 10 15 0 8
-4 15 -10 15 -5 0 -14 9 -20 20 -9 17 -8 20 12 17 19 -2 22 2 20 21 -3 21 -1
23 20 16 13 -5 35 -8 51 -8 33 1 36 -11 5 -21 l-23 -8 22 -4 c12 -2 27 -11 33
-19 7 -8 19 -14 26 -14 8 0 14 -4 14 -9 0 -11 69 -55 75 -49 3 2 -13 22 -35
43 -22 22 -40 43 -40 47 0 4 14 8 30 8 17 0 30 -4 30 -10 0 -5 10 -10 23 -10
21 1 21 1 -4 17 -29 18 -54 52 -44 61 3 4 9 2 13 -4 4 -6 27 -22 52 -34 40
-20 43 -21 30 -4 -8 10 -22 24 -30 31 -13 11 -13 12 1 13 9 0 22 -7 29 -15 7
-8 19 -15 26 -15 8 0 14 -4 14 -9 0 -15 99 -61 106 -49 4 6 -3 19 -15 30 -14
10 -21 24 -17 33 6 18 27 20 43 4 6 -6 19 -9 29 -6 17 4 17 6 -3 12 -13 4 -23
11 -23 16 0 14 -57 39 -87 39 -15 0 -37 -7 -47 -15 -10 -8 -23 -12 -29 -8 -5
3 -4 9 4 13 31 20 -53 70 -123 75 -42 3 -60 -10 -28 -20 11 -3 20 -10 20 -14
0 -13 -64 1 -84 18 -11 9 -16 11 -13 4 4 -6 1 -13 -5 -16 -7 -2 -1 -8 15 -12
15 -4 27 -11 27 -16 0 -5 7 -9 16 -9 24 0 11 -25 -15 -28 -14 -2 -30 6 -44 22
-13 14 -26 26 -30 26 -4 0 -26 14 -49 31 -28 20 -50 28 -64 25 -13 -4 -27 0
-34 9 -18 22 -55 19 -57 -4 -1 -13 7 -21 23 -25 13 -4 24 -13 24 -21 0 -20
-24 -19 -41 1 -7 9 -23 20 -36 25 -22 8 -23 39 -2 39 14 0 11 48 -3 57 -7 4
-18 17 -24 28 -6 11 -20 21 -30 23 -18 3 -18 2 -1 -11 9 -8 17 -24 17 -36 0
-14 6 -21 20 -21 26 0 25 -10 -5 -39 -20 -18 -25 -20 -25 -7 0 15 -26 21 -74
16 -10 -1 -35 12 -56 29 -22 17 -44 31 -49 31 -6 0 -11 9 -11 20 0 11 -7 20
-15 20 -13 0 -14 -4 -4 -21 17 -33 -5 -45 -25 -14 -10 15 -30 31 -44 36 -15 5
-40 29 -55 54 -21 33 -35 45 -53 45 -13 0 -24 6 -24 13 0 7 -8 24 -17 37 -11
15 -18 46 -19 78 l-2 53 24 -26 c25 -27 32 -29 52 -16 11 6 7 13 -16 30 -17
11 -35 21 -41 21 -17 0 -13 20 5 27 9 3 11 9 6 12 -5 3 -12 16 -16 28 -6 18
-1 25 24 38 17 9 35 27 40 40 7 19 17 25 40 25 l31 0 -25 27 c-27 29 -20 53
15 53 11 0 19 5 19 10 0 6 9 10 20 10 13 0 20 7 20 20 0 11 6 23 14 26 8 3 17
16 20 28 4 15 18 27 46 36 33 11 42 20 47 42 4 19 12 28 25 28 14 0 18 5 14
16 -4 10 11 33 42 66 28 30 46 58 44 69 -2 10 1 26 7 36 13 25 -32 49 -50 27
-18 -22 -29 -17 -44 20 -19 46 -35 54 -35 19z m-870 -454 c0 -11 -4 -17 -10
-14 -5 3 -10 13 -10 21 0 8 5 14 10 14 6 0 10 -9 10 -21z m580 -495 c0 -17
-22 -14 -28 4 -2 7 3 12 12 12 9 0 16 -7 16 -16z m-840 -18 c0 -3 -4 -8 -10
-11 -5 -3 -10 -1 -10 4 0 6 5 11 10 11 6 0 10 -2 10 -4z m90 -10 c0 -3 -4 -8
-10 -11 -5 -3 -10 -1 -10 4 0 6 5 11 10 11 6 0 10 -2 10 -4z m817 -2 c-3 -3
-12 -4 -19 -1 -8 3 -5 6 6 6 11 1 17 -2 13 -5z m-1077 -34 c0 -13 -40 -13 -60
0 -11 7 -5 10 23 10 20 0 37 -4 37 -10z m-113 -26 c-3 -3 -12 -4 -19 -1 -8 3
-5 6 6 6 11 1 17 -2 13 -5z m-657 -144 c0 -5 -2 -10 -4 -10 -3 0 -8 5 -11 10
-3 6 -1 10 4 10 6 0 11 -4 11 -10z m275 -20 c3 -5 -1 -10 -10 -10 -9 0 -13 5
-10 10 3 6 8 10 10 10 2 0 7 -4 10 -10z m236 -32 c9 -16 9 -23 0 -26 -6 -2
-11 -10 -11 -18 0 -8 -9 -14 -20 -14 -16 0 -18 4 -10 24 5 13 6 26 3 29 -7 7
6 27 17 27 5 0 15 -10 21 -22z m1767 -56 c17 -9 32 -23 32 -31 0 -8 7 -23 17
-33 15 -17 14 -19 -9 -41 -23 -21 -26 -22 -36 -7 -6 9 -26 25 -46 34 -20 9
-36 21 -36 26 0 13 -37 50 -50 50 -5 0 -10 5 -10 10 0 6 7 10 15 10 8 0 15 -4
15 -10 0 -16 27 -12 34 5 6 16 21 13 74 -13z m-1824 -29 c-10 -7 -27 -13 -38
-12 -15 0 -17 2 -6 6 8 3 18 12 23 19 4 7 15 10 24 7 14 -6 14 -8 -3 -20z m86
7 c0 -5 -4 -10 -10 -10 -5 0 -10 5 -10 10 0 6 5 10 10 10 6 0 10 -4 10 -10z
m-40 -40 c0 -5 -5 -10 -11 -10 -5 0 -7 5 -4 10 3 6 8 10 11 10 2 0 4 -4 4 -10z
m2140 -156 c0 -8 -4 -12 -10 -9 -5 3 -10 13 -10 21 0 8 5 12 10 9 6 -3 10 -13
10 -21z m23 -39 c4 -8 2 -17 -3 -20 -6 -4 -10 3 -10 14 0 25 6 27 13 6z
m-2623 -25 c4 0 10 -7 14 -15 7 -19 -41 -68 -60 -61 -8 3 -14 1 -14 -5 0 -5
-13 -24 -30 -42 -16 -18 -30 -36 -30 -40 0 -5 -5 -5 -11 -2 -6 4 0 19 15 40
15 19 26 38 26 44 0 6 4 11 8 11 5 0 16 19 25 41 12 31 20 40 32 35 9 -3 20
-6 25 -6z m2687 -37 c18 -20 33 -41 33 -47 0 -6 11 -31 24 -56 13 -25 26 -55
30 -67 6 -18 4 -20 -14 -16 -11 3 -23 17 -26 32 -4 14 -17 40 -30 58 -13 17
-24 35 -24 40 0 4 -9 14 -20 21 -19 12 -30 72 -13 72 4 0 22 -17 40 -37z m93
-58 c0 -8 -4 -15 -10 -15 -5 0 -10 7 -10 15 0 8 5 15 10 15 6 0 10 -7 10 -15z
m-2636 -66 c-3 -5 -10 -7 -15 -3 -5 3 -7 10 -3 15 3 5 10 7 15 3 5 -3 7 -10 3
-15z m-284 -13 c0 -2 -7 -9 -15 -16 -13 -11 -14 -10 -9 4 5 14 24 23 24 12z
m270 -27 c0 -6 -4 -7 -10 -4 -5 3 -10 11 -10 16 0 6 5 7 10 4 6 -3 10 -11 10
-16z m2670 -43 c0 -3 -4 -8 -10 -11 -5 -3 -10 -1 -10 4 0 6 5 11 10 11 6 0 10
-2 10 -4z m350 -78 c0 -6 -7 -5 -15 2 -8 7 -15 17 -15 22 0 6 7 5 15 -2 8 -7
15 -17 15 -22z m-195 -308 c3 -5 1 -10 -4 -10 -6 0 -11 5 -11 10 0 6 2 10 4
10 3 0 8 -4 11 -10z"/>
<path d="M5675 2430 c8 -13 35 -13 55 0 11 7 5 10 -23 10 -23 0 -36 -4 -32
-10z"/>
<path d="M3280 2419 c0 -5 5 -7 10 -4 6 3 10 8 10 11 0 2 -4 4 -10 4 -5 0 -10
-5 -10 -11z"/>
<path d="M5722 2387 c18 -14 88 -11 88 4 0 5 -24 9 -52 9 -45 -1 -51 -3 -36
-13z"/>
<path d="M5668 2383 c7 -3 16 -2 19 1 4 3 -2 6 -13 5 -11 0 -14 -3 -6 -6z"/>
<path d="M520 2370 c0 -5 7 -10 16 -10 14 0 14 -3 4 -15 -10 -13 -9 -15 11
-15 31 0 69 11 69 19 0 10 -52 31 -77 31 -13 0 -23 -4 -23 -10z"/>
<path d="M1085 2330 c3 -5 14 -10 23 -10 15 0 15 2 2 10 -20 13 -33 13 -25 0z"/>
<path d="M1176 2331 c-7 -10 33 -23 46 -15 5 3 6 10 3 15 -8 12 -42 12 -49 0z"/>
<path d="M5518 2303 c7 -3 16 -2 19 1 4 3 -2 6 -13 5 -11 0 -14 -3 -6 -6z"/>
<path d="M5723 2271 c-1 -14 4 -21 17 -21 27 0 34 -18 8 -22 -47 -7 -26 -25
42 -37 77 -14 85 -31 14 -31 -29 0 -62 -9 -92 -25 -26 -14 -54 -25 -62 -26
-10 0 -11 -2 -2 -6 6 -2 10 -9 6 -14 -3 -5 0 -9 5 -9 25 0 9 -20 -16 -21 -25
-1 -24 -2 7 -9 l35 -7 -50 -14 -49 -14 54 -7 c30 -4 98 -12 151 -19 52 -7 104
-9 115 -5 18 7 17 8 -6 21 l-25 14 34 1 c23 0 41 -8 56 -24 17 -18 36 -25 93
-30 86 -9 105 -1 62 25 -20 13 -53 20 -91 22 -32 1 -59 5 -59 10 0 4 -12 7
-27 7 -38 1 -98 32 -98 50 0 11 14 16 50 18 56 3 78 22 69 57 -5 21 -1 23 50
29 31 4 60 5 65 2 13 -8 42 4 35 15 -3 5 -45 7 -94 5 -81 -3 -90 -2 -95 15 -9
28 -80 60 -145 66 -51 5 -56 4 -57 -16z m127 -233 c0 -4 -22 -8 -50 -8 -27 0
-50 4 -50 8 0 5 23 8 50 8 28 0 50 -3 50 -8z"/>
<path d="M980 2270 c8 -5 44 -9 80 -9 48 1 58 3 40 9 -38 12 -139 12 -120 0z"/>
<path d="M5570 2261 c0 -17 55 -32 81 -22 23 9 23 10 -8 10 -17 1 -35 6 -38
11 -8 12 -35 13 -35 1z"/>
<path d="M1180 2240 c0 -5 15 -10 33 -10 24 0 28 3 17 10 -20 13 -50 13 -50 0z"/>
<path d="M998 2223 c6 -2 18 -2 25 0 6 3 1 5 -13 5 -14 0 -19 -2 -12 -5z"/>
<path d="M1227 2203 c-13 -3 -16 -10 -12 -24 7 -20 3 -20 -103 -13 -122 8
-187 0 -179 -20 4 -10 -9 -16 -44 -20 -27 -4 -49 -11 -49 -16 0 -15 47 -23 77
-13 16 5 37 7 48 5 14 -4 4 -9 -30 -17 l-50 -13 64 -1 c69 -1 205 13 283 30
40 9 50 8 64 -5 12 -13 40 -16 149 -16 78 0 136 4 140 10 3 6 27 10 53 10 42
0 44 1 26 15 -10 8 -30 15 -44 15 -28 1 -60 21 -60 38 0 6 10 18 22 26 21 15
8 16 -157 15 -99 -1 -188 -3 -198 -6z m-17 -82 c0 -11 -63 -21 -90 -14 -16 4
-18 8 -8 14 17 11 98 11 98 0z m-143 -7 c-3 -3 -12 -4 -19 -1 -8 3 -5 6 6 6
11 1 17 -2 13 -5z"/>
<path d="M5940 2071 c0 -4 25 -9 55 -9 31 0 53 4 49 9 -7 11 -104 12 -104 0z"/>
<path d="M1430 1990 c0 -5 -24 -10 -52 -11 -29 0 -75 -4 -103 -9 -40 -6 -44
-8 -20 -10 17 -2 48 -3 70 -2 31 1 36 0 20 -8 -15 -6 -8 -9 31 -9 27 -1 55 -6
60 -11 8 -8 19 -7 37 1 31 14 34 31 11 53 -17 18 -54 22 -54 6z"/>
<path d="M1100 1940 c8 -5 29 -10 45 -10 17 0 37 5 45 10 11 7 -3 10 -45 10
-42 0 -56 -3 -45 -10z"/>
<path d="M5758 1943 c7 -3 16 -2 19 1 4 3 -2 6 -13 5 -11 0 -14 -3 -6 -6z"/>
<path d="M5868 1943 c7 -3 16 -2 19 1 4 3 -2 6 -13 5 -11 0 -14 -3 -6 -6z"/>
<path d="M5715 1907 c17 -12 50 -14 90 -7 18 3 -39 18 -75 19 -32 1 -33 0 -15
-12z"/>
<path d="M6150 1910 c19 -13 30 -13 30 0 0 6 -10 10 -22 10 -19 0 -20 -2 -8
-10z"/>
<path d="M5860 1901 c0 -6 20 -13 45 -17 44 -6 81 -36 69 -56 -8 -13 18 -9 46
7 23 13 23 14 5 16 -11 1 -23 1 -27 0 -4 0 -5 5 -2 13 6 15 -36 31 -73 27 -11
-1 -24 3 -28 8 -8 14 -35 14 -35 2z"/>
<path d="M5761 1871 c-19 -12 17 -31 59 -31 17 0 45 -7 61 -16 28 -14 32 -14
50 2 29 26 23 34 -26 34 -25 0 -45 5 -45 10 0 12 -80 13 -99 1z"/>
<path d="M1393 1853 c9 -2 23 -2 30 0 6 3 -1 5 -18 5 -16 0 -22 -2 -12 -5z"/>
<path d="M1228 1843 c7 -3 16 -2 19 1 4 3 -2 6 -13 5 -11 0 -14 -3 -6 -6z"/>
<path d="M1308 1843 c7 -3 16 -2 19 1 4 3 -2 6 -13 5 -11 0 -14 -3 -6 -6z"/>
<path d="M1430 1830 c-12 -8 -9 -10 13 -10 15 0 27 5 27 10 0 13 -20 13 -40 0z"/>
<path d="M1325 1820 c3 -5 19 -10 35 -10 16 0 32 5 35 10 4 6 -10 10 -35 10
-25 0 -39 -4 -35 -10z"/>
<path d="M2255 1810 c-3 -5 3 -10 14 -10 11 0 23 5 26 10 3 6 -3 10 -14 10
-11 0 -23 -4 -26 -10z"/>
<path d="M1250 1785 c-13 -14 -29 -24 -36 -21 -12 5 -34 -12 -34 -26 0 -14 40
-8 46 7 4 9 18 14 38 14 23 -1 25 -3 9 -6 -13 -2 -23 -11 -23 -18 0 -8 -15
-17 -37 -20 -54 -9 -65 -14 -58 -24 3 -5 1 -12 -5 -16 -5 -3 -10 -13 -10 -21
0 -11 6 -13 23 -8 12 3 23 9 25 13 10 25 23 35 30 25 5 -8 29 -9 77 -4 41 4
55 8 33 9 -21 0 -38 6 -38 11 0 13 30 13 87 -2 37 -10 47 -10 50 0 3 6 16 12
30 12 13 0 31 6 39 14 24 24 -36 59 -110 64 -34 2 -65 8 -70 13 -17 16 -42 10
-66 -16z"/>
<path d="M6064 1795 c-17 -12 -17 -14 -1 -38 l16 -25 -44 -7 c-53 -7 -57 -16
-14 -32 34 -13 59 -8 59 13 0 8 9 14 20 14 11 0 20 4 20 10 0 5 26 10 57 12
57 3 57 3 32 20 -14 9 -48 23 -76 31 -42 13 -54 13 -69 2z"/>
<path d="M1025 1790 c-18 -8 -17 -9 8 -9 15 -1 27 4 27 9 0 12 -8 12 -35 0z"/>
<path d="M5900 1792 c-8 -3 -20 -12 -27 -21 -10 -14 -17 -14 -57 -3 -61 16
-66 15 -66 -8 0 -11 6 -20 13 -20 8 0 28 -7 45 -15 24 -12 35 -13 49 -4 15 9
27 8 57 -5 21 -9 42 -16 47 -16 15 0 10 27 -6 34 -8 3 -15 11 -15 18 -1 22
-24 45 -40 40z"/>
<path d="M2300 1770 c-20 -6 -21 -8 -5 -8 11 0 29 3 40 8 25 11 -1 11 -35 0z"/>
<path d="M2530 1750 c0 -5 7 -7 15 -4 8 4 15 8 15 10 0 2 -7 4 -15 4 -8 0 -15
-4 -15 -10z"/>
<path d="M4908 1753 c7 -3 16 -2 19 1 4 3 -2 6 -13 5 -11 0 -14 -3 -6 -6z"/>
<path d="M4710 1726 c19 -8 39 -11 45 -8 11 7 -29 20 -60 20 -12 0 -6 -5 15
-12z"/>
<path d="M3253 1705 c-3 -9 -3 -18 0 -21 9 -9 27 6 27 22 0 19 -19 18 -27 -1z"/>
<path d="M4870 1710 c0 -11 47 -33 61 -28 15 5 -6 25 -33 32 -17 4 -28 2 -28
-4z"/>
<path d="M5685 1700 c-16 -7 -12 -9 19 -9 22 -1 36 -4 32 -8 -3 -4 -27 -6 -51
-6 -33 1 -45 -3 -45 -13 0 -8 10 -14 26 -14 14 0 23 -4 19 -10 -3 -5 -21 -8
-39 -6 -18 1 -42 -1 -52 -5 -13 -5 -6 -8 24 -8 23 -1 42 -5 42 -11 0 -5 7 -10
16 -10 9 0 12 -5 8 -11 -5 -8 3 -10 24 -7 17 2 33 2 34 -1 5 -10 131 -51 154
-51 12 0 27 -7 34 -15 15 -18 80 -10 93 11 10 17 57 19 57 3 0 -6 9 -9 20 -6
22 6 28 -8 8 -16 -18 -7 60 -39 85 -35 12 2 23 11 25 22 2 10 0 16 -6 12 -5
-3 -12 0 -15 8 -3 7 -26 19 -51 27 -25 7 -46 17 -46 20 0 4 -13 10 -30 14 -46
10 -45 22 4 45 25 11 47 24 50 29 3 4 -26 8 -65 9 -38 0 -75 4 -82 10 -27 21
-58 20 -77 -1 -18 -18 -21 -19 -37 -5 -20 16 -116 48 -142 47 -9 0 -25 -4 -36
-9z m270 -61 c5 -5 25 -10 45 -10 25 -2 28 -3 10 -6 -36 -6 -103 10 -108 26
-3 10 2 11 19 6 13 -4 28 -11 34 -16z m235 -145 c0 -2 -7 -4 -15 -4 -8 0 -15
4 -15 10 0 5 7 7 15 4 8 -4 15 -8 15 -10z"/>
<path d="M6140 1689 c0 -12 8 -23 20 -26 10 -3 22 -14 25 -24 4 -10 9 -18 13
-17 4 1 24 -1 45 -6 45 -9 77 0 77 20 0 12 -7 14 -30 9 -19 -4 -30 -3 -30 4 0
6 -14 11 -30 11 -23 0 -33 6 -40 25 -12 32 -50 35 -50 4z"/>
<path d="M5168 1693 c6 -2 18 -2 25 0 6 3 1 5 -13 5 -14 0 -19 -2 -12 -5z"/>
<path d="M5868 1683 c7 -3 16 -2 19 1 4 3 -2 6 -13 5 -11 0 -14 -3 -6 -6z"/>
<path d="M3113 1673 c-7 -2 -13 -11 -13 -19 0 -12 4 -12 20 -2 31 20 26 35 -7
21z"/>
<path d="M1391 1579 c-30 -5 -60 -14 -66 -19 -7 -5 -14 -8 -17 -5 -3 3 -32 -2
-64 -11 -32 -9 -69 -18 -81 -21 -18 -4 -23 -12 -23 -35 0 -16 -4 -37 -9 -47
-6 -10 -7 -28 -4 -40 4 -18 11 -21 27 -16 11 3 35 10 51 14 17 4 46 15 65 23
19 9 65 24 102 34 36 10 65 21 63 25 -3 3 12 14 32 25 58 31 56 48 -6 42 -55
-5 -56 0 -6 26 34 18 22 19 -64 5z"/>
<path d="M4200 1560 c0 -5 12 -17 28 -27 29 -19 72 -63 72 -75 0 -11 38 -10
44 0 5 9 -119 112 -135 112 -5 0 -9 -4 -9 -10z"/>
<path d="M6213 1563 c-13 -2 -23 -9 -23 -14 0 -14 24 -11 46 6 19 15 16 16
-23 8z"/>
<path d="M2870 1530 c0 -5 6 -10 14 -10 8 0 18 5 21 10 3 6 -3 10 -14 10 -12
0 -21 -4 -21 -10z"/>
<path d="M2645 1479 c-49 -20 -92 -50 -50 -35 11 4 38 10 60 13 44 5 97 43 60
42 -11 0 -42 -9 -70 -20z"/>
<path d="M6020 1490 c0 -5 5 -10 11 -10 5 0 7 5 4 10 -3 6 -8 10 -11 10 -2 0
-4 -4 -4 -10z"/>
<path d="M5705 1473 c35 -9 38 -21 6 -28 -28 -6 -45 -35 -21 -35 6 0 10 -5 10
-10 0 -6 -11 -8 -25 -4 -14 3 -31 1 -38 -4 -18 -15 -10 -82 10 -82 8 0 12 -4
9 -9 -3 -5 20 -22 52 -39 31 -16 91 -50 132 -75 41 -24 92 -51 112 -58 38 -13
38 -13 73 25 36 39 43 60 25 71 -17 10 -11 35 8 35 14 0 15 2 2 10 -13 8 -13
10 2 10 11 0 18 -10 20 -27 l4 -28 14 30 c8 17 21 34 28 38 11 7 10 12 -5 23
-14 11 -15 14 -3 14 8 1 4 6 -9 11 -16 6 -27 6 -31 -1 -3 -5 -28 -12 -56 -16
-43 -5 -47 -4 -31 9 25 21 21 27 -14 17 -20 -6 -38 -6 -48 0 -9 5 -12 10 -6
10 5 0 -1 7 -13 16 -12 8 -22 19 -22 25 0 14 26 11 39 -5 6 -8 26 -16 43 -18
30 -5 30 -5 8 12 -20 15 -79 37 -170 63 -19 5 -45 13 -58 18 -13 5 -33 8 -45
8 -20 -1 -20 -2 -2 -6z m88 -40 c-7 -2 -21 -2 -30 0 -10 3 -4 5 12 5 17 0 24
-2 18 -5z m84 -19 c-3 -3 -12 -4 -19 -1 -8 3 -5 6 6 6 11 1 17 -2 13 -5z m218
-114 c-3 -5 -12 -7 -20 -3 -21 7 -19 13 6 13 11 0 18 -4 14 -10z"/>
<path d="M1480 1453 c-73 -14 -273 -94 -286 -114 -3 -5 4 -23 16 -39 12 -16
18 -34 15 -40 -4 -6 1 -7 10 -3 10 3 20 1 24 -6 8 -12 10 -12 86 20 37 15 120
47 195 76 47 17 67 29 55 32 -11 2 -26 8 -33 14 -11 9 -11 12 1 19 18 10 11
48 -9 48 -8 0 -14 -5 -14 -12 0 -9 -3 -9 -12 0 -7 7 -14 11 -17 11 -4 -1 -17
-4 -31 -6z"/>
<path d="M6125 1450 c3 -5 11 -10 16 -10 6 0 7 5 4 10 -3 6 -11 10 -16 10 -6
0 -7 -4 -4 -10z"/>
<path d="M2520 1440 c0 -5 5 -10 10 -10 6 0 10 5 10 10 0 6 -4 10 -10 10 -5 0
-10 -4 -10 -10z"/>
<path d="M6015 1433 c11 -3 24 -9 30 -14 5 -5 16 -9 25 -9 8 0 2 7 -14 15 -15
8 -36 14 -45 14 -11 -1 -10 -3 4 -6z"/>
<path d="M6175 1370 c-3 -5 -2 -10 4 -10 5 0 13 5 16 10 3 6 2 10 -4 10 -5 0
-13 -4 -16 -10z"/>
<path d="M5060 1340 c0 -6 8 -13 18 -16 9 -3 27 -10 39 -16 11 -6 27 -8 35 -6
7 3 -8 15 -34 26 -54 25 -58 26 -58 12z"/>
<path d="M1550 1303 c-14 -2 -39 -11 -57 -19 -17 -8 -36 -14 -42 -14 -16 0
-161 -73 -161 -81 0 -4 11 -10 25 -13 14 -4 25 -11 25 -16 0 -6 7 -10 15 -10
23 0 234 113 229 122 -3 4 2 8 12 8 13 0 14 3 4 15 -7 8 -15 14 -19 14 -3 -1
-17 -4 -31 -6z"/>
<path d="M5200 1282 c0 -5 17 -17 38 -27 20 -10 45 -22 56 -27 12 -6 22 -6 29
1 16 16 -4 33 -44 37 -18 2 -38 9 -43 14 -12 12 -36 13 -36 2z"/>
<path d="M5560 1281 c0 -6 -15 -20 -32 -31 -18 -11 -27 -20 -20 -20 6 0 12 -5
12 -11 0 -6 -7 -9 -15 -5 -34 13 -12 -23 28 -44 52 -28 232 -144 276 -177 42
-33 62 -38 63 -18 1 6 8 15 16 21 9 6 13 19 10 32 -4 15 0 22 15 26 12 3 25 0
29 -7 4 -6 10 -9 13 -6 12 13 -32 69 -70 89 -22 12 -53 29 -70 39 -62 36 -71
33 -30 -10 22 -23 33 -39 24 -36 -22 7 -159 117 -159 127 0 5 -12 13 -27 18
-16 5 -36 13 -45 17 -11 4 -18 3 -18 -4z m317 -207 c-3 -3 -12 -4 -19 -1 -8 3
-5 6 6 6 11 1 17 -2 13 -5z"/>
<path d="M1595 1217 c-11 -7 -38 -19 -60 -26 -22 -8 -57 -25 -77 -38 -21 -12
-42 -23 -47 -23 -5 0 -14 -7 -21 -16 -8 -8 -9 -14 -4 -13 20 4 28 -2 14 -11
-8 -5 -12 -11 -10 -13 9 -8 201 94 245 129 l30 24 -25 0 c-14 0 -34 -6 -45
-13z"/>
<path d="M5170 1226 c0 -2 7 -6 15 -10 8 -3 15 -1 15 4 0 6 -7 10 -15 10 -8 0
-15 -2 -15 -4z"/>
<path d="M1595 1140 c-90 -48 -142 -86 -133 -96 3 -3 17 1 32 7 33 15 45 5 23
-19 -10 -10 -17 -27 -17 -38 1 -19 23 -56 34 -55 20 3 24 -2 30 -29 3 -16 11
-30 19 -30 14 0 91 47 128 78 13 11 44 36 67 56 26 21 37 36 28 36 -21 0 -21
16 1 28 15 9 14 10 -3 20 -10 5 -43 13 -72 17 l-54 7 24 22 23 21 -24 3 c-19
3 -21 6 -10 13 8 5 10 9 4 8 -5 0 -50 -22 -100 -49z m15 -224 c0 -3 -4 -8 -10
-11 -5 -3 -10 -1 -10 4 0 6 5 11 10 11 6 0 10 -2 10 -4z"/>
<path d="M5455 1140 c-12 -19 22 -53 134 -133 62 -45 120 -86 130 -92 9 -5 18
-13 21 -16 3 -4 19 -9 36 -13 23 -5 34 -2 49 14 19 21 8 29 -13 8 -9 -9 -15
-9 -24 0 -9 9 -8 12 5 12 9 0 17 4 17 8 0 9 -94 92 -104 92 -3 0 -38 22 -78
49 -105 70 -160 92 -173 71z"/>
<path d="M1845 1090 c-19 -8 -19 -9 3 -9 12 -1 22 4 22 9 0 6 -1 10 -2 9 -2 0
-12 -4 -23 -9z"/>
<path d="M4955 1090 c3 -5 8 -10 11 -10 2 0 4 5 4 10 0 6 -5 10 -11 10 -5 0
-7 -4 -4 -10z"/>
<path d="M418 1056 c-21 -11 -38 -28 -38 -37 0 -16 -33 -36 -97 -59 -18 -7
-52 -32 -77 -56 -24 -24 -47 -44 -51 -44 -4 0 -17 -10 -29 -23 -11 -12 -40
-31 -63 -41 -23 -10 -40 -23 -37 -27 3 -5 -2 -9 -10 -9 -14 0 -16 -45 -16
-380 l0 -380 420 0 421 0 24 27 c32 36 31 43 -4 43 -35 0 -61 9 -61 21 0 5 6
9 13 9 8 0 24 11 37 25 22 23 22 25 4 25 -10 0 -34 15 -53 32 -34 31 -34 31
-18 60 16 28 16 29 -6 37 -12 5 -33 20 -45 34 -20 21 -22 29 -12 46 14 27 5
41 -27 41 -24 0 -24 2 18 40 36 33 41 41 29 49 -34 23 -74 -2 -215 -134 -102
-96 -195 -188 -195 -194 0 -3 -10 -12 -21 -19 -41 -26 69 103 165 193 53 49
96 95 96 101 0 7 12 19 26 29 33 21 64 53 64 64 0 6 -12 6 -32 0 -18 -5 -40
-6 -50 -3 -16 5 -14 9 12 37 16 18 30 42 30 55 0 16 5 22 16 20 10 -2 19 2 21
9 3 9 -4 10 -26 3 -35 -10 -96 2 -120 24 -19 18 -71 22 -71 6 0 -5 -4 -10 -10
-10 -19 0 -10 32 31 115 43 89 43 111 -1 135 -12 6 -17 16 -13 26 3 8 -4 25
-17 39 l-22 24 38 6 c61 11 70 14 98 40 l27 25 -58 -1 c-39 -1 -70 -8 -95 -23z
m-1 -410 c-4 -9 -15 -16 -26 -16 -15 0 -19 5 -14 18 4 9 11 20 17 24 15 10 30
-7 23 -26z"/>
<path d="M1910 1051 c0 -5 9 -11 20 -14 24 -6 27 8 4 17 -21 8 -24 8 -24 -3z"/>
<path d="M5450 1053 c0 -4 12 -18 28 -31 17 -15 20 -22 10 -18 -30 9 -19 -7
30 -47 26 -20 63 -51 82 -68 76 -68 121 -102 127 -95 3 3 -2 15 -12 26 -16 18
-16 20 -2 20 10 0 17 -4 17 -10 0 -5 5 -10 10 -10 21 0 8 22 -37 67 -27 25
-62 52 -80 59 -17 8 -38 23 -47 35 -9 14 -21 19 -31 15 -9 -3 -13 -2 -10 4 3
6 -2 13 -12 17 -10 4 -27 15 -37 25 -20 19 -36 23 -36 11z"/>
<path d="M1854 1025 c-16 -14 -33 -25 -38 -25 -29 0 -180 -137 -192 -173 -6
-21 12 -47 33 -47 22 0 40 -22 35 -42 -3 -14 0 -17 12 -12 11 4 16 1 16 -10 0
-28 16 -18 66 40 27 32 61 69 75 83 39 40 101 132 94 139 -4 4 -12 0 -18 -8
-11 -13 -57 -23 -57 -13 0 9 29 33 39 33 17 0 13 18 -9 40 -25 25 -21 25 -56
-5z"/>
<path d="M5300 995 c0 -8 5 -15 11 -15 7 0 9 -10 5 -25 -5 -18 -3 -23 8 -19 9
3 16 -4 20 -20 6 -23 9 -25 26 -14 30 19 27 28 -30 83 -28 29 -40 31 -40 10z"/>
<path d="M5110 990 c0 -4 9 -10 21 -13 12 -3 19 -1 17 5 -5 13 -38 20 -38 8z"/>
<path d="M5406 993 c-3 -4 4 -13 16 -21 22 -13 22 -13 -7 -7 l-30 7 28 -29
c15 -16 27 -34 27 -41 0 -7 4 -12 9 -12 4 0 20 -17 34 -37 37 -55 81 -103 94
-103 6 0 13 -5 15 -11 2 -7 18 -13 36 -14 27 -1 31 1 27 16 -4 10 1 21 10 26
13 8 6 18 -37 59 -69 64 -134 114 -148 114 -6 0 -8 4 -5 10 3 5 -5 15 -19 22
-14 6 -26 15 -26 20 0 10 -14 11 -24 1z m224 -255 c0 -6 -7 -5 -15 2 -8 7 -15
17 -15 22 0 6 7 5 15 -2 8 -7 15 -17 15 -22z"/>
<path d="M1940 905 c-13 -14 -20 -25 -15 -25 7 0 45 39 45 47 0 7 -8 2 -30
-22z"/>
<path d="M5382 898 c-19 -19 -15 -30 39 -93 106 -124 121 -138 129 -125 11 17
3 38 -29 76 -14 18 -34 42 -44 55 -10 13 -29 38 -42 54 -14 17 -25 33 -25 38
0 11 -14 9 -28 -5z"/>
<path d="M490 805 c-13 -16 -6 -35 15 -35 13 0 35 29 35 44 0 12 -38 5 -50 -9z"/>
<path d="M7380 130 c-166 -11 -348 -28 -400 -39 -44 -10 -231 -23 -301 -21
-21 0 -42 -6 -49 -15 -11 -13 -16 -13 -47 0 -19 8 -39 13 -43 10 -5 -3 -19 -1
-33 4 -17 7 -40 5 -73 -4 -27 -7 -121 -19 -209 -25 -87 -6 -165 -16 -171 -21
-9 -7 -19 -7 -34 1 -23 12 -50 7 -50 -10 0 -7 246 -10 765 -10 l765 0 0 70 c0
39 -1 69 -2 68 -2 -1 -55 -4 -118 -8z"/>
<path d="M5854 21 c-2 -3 -37 -8 -77 -11 -65 -6 -61 -7 51 -9 70 0 121 3 118
8 -6 10 -84 20 -92 12z"/>
</g>
</svg>
